<?xml version="1.0" encoding="utf-8"?>
<!-- Generator: Adobe Illustrator 27.0.0, SVG Export Plug-In . SVG Version: 6.00 Build 0)  -->
<svg version="1.1" id="Layer_1" xmlns="http://www.w3.org/2000/svg" xmlns:xlink="http://www.w3.org/1999/xlink" x="0px" y="0px"
	 viewBox="0 0 342 342" style="enable-background:new 0 0 342 342;" xml:space="preserve">
<style type="text/css">
	.st0{fill:#59441E;}
	.st1{fill:none;stroke:#59441E;stroke-miterlimit:10;}
</style>
<path class="st0" d="M144.4,47.7l-0.2-0.4c0.7-0.2,1.6-0.6,2.3-0.8l0.2,0.7C146.2,47.4,145.2,47.6,144.4,47.7z M251.1,299.8l0.8,0.4
	c0.1,0.4,0.5,1.1,0.8,1.4c0.7-0.7,1.4-1.7,1.8-2.6l-0.3-0.6c-0.3,0.2-1.1,0.7-1.4,0.9C252.3,299.4,251.5,299.7,251.1,299.8z
	 M126.5,105.4l0.7-1.3c0.4-1.8-0.7-4.8,0.1-6.5l-0.8-0.1l0.5-1.1l-0.5-0.4l-2.6,1.5c-0.7,0.7-1.8,1.3-2.8,1.4l0.4-1.4l-0.8,0.5
	l-0.5,2.4l-0.5,0.1L119,99c-0.4,0.1-1.3,0.3-1.6,0.8l0.5,1.7c0.5,0.3,1.5,1,1.9,1.4l0.6-0.9l0.5,1.4l1.6-0.4l0.3-0.8l1.3-0.3v0.8
	l1-0.2l0.4-1.1c0,0.4,0.2,3.7,0.4,4H126.5z M119.1,40.5c0.6,0.1,1.8,0.1,2.3-0.2l0.1,0.5l1.3-0.5l0.6,0.4c0.4-0.3,1.7-0.3,2.1-0.3
	l1.8-0.6l0.2-0.4c0.7-0.1,2.8-0.6,3.5-0.7l0.4-0.6l-1.6,0.2l-0.2-0.6l-1.3-0.4c1-1.1,3.4-1.1,4.7-1.4l0.1-0.6l-1.4-0.2
	c-0.5,0.5-1.8,0.9-2.5,1c-0.6,0.4-2,0.7-2.7,0.7l-0.3-0.4l-0.7-0.1c-0.2,0.5-0.7,1.7-1.3,1.9l-0.5-0.3l-0.8,0.4l-0.4,0.4
	c-0.9,0.3-2,0.9-3,0.8L119.1,40.5z M131.2,96.8l0.2,0.3c1.2,0.1,2.5-0.1,3.7-0.4l0.4-0.4c-1.2-0.3-2.4-0.2-3.6,0.1L131.2,96.8z
	 M97.9,35.4l0.5-0.7c-0.8,0-1.7,1-2.4,1.3c0.1,0.3,0.4,0.8,0.5,1.1c0.6-0.2,1.3-0.7,1.7-1.1L97.9,35.4z M141.7,35.8
	c-2.3,0.8-5.8,1.3-8,2.3l-0.2,0.5c0.9,0.2,2.8,0.2,3.7-0.2l-0.1,0.5c0.5,0,1.8,0,2.2-0.2L144,40l2.1-0.6c3.5,1.4,8.2,0.2,11.5-1.4
	c0.2-0.6,1.1-1.1,1.6-1.3c-0.6-0.1-1.6,0-2.2,0.2l-0.3,0.4c-0.7-0.1-2,0.9-2.5,1.3l-2.3,0.2l0.8-0.6c-0.5-0.3-3.3,0-3.9,0
	c-1.1-0.4-3.2-0.4-4.3,0l-0.7-0.8c-1-0.6-2.4,0.1-3.5-0.3L141.7,35.8z M143.8,47.6l-0.5-0.2l-0.2-0.9l-0.4-0.1c0,0.3-0.1,1-0.1,1.3
	c0.5,0.1,1.4,0.3,1.9,0.4l-0.1-0.2L143.8,47.6z M144.8,44.1l0.1-0.6l-1-0.4c-0.2-0.2-0.6-0.6-0.8-0.8l-0.5,0.2
	c0.1,0.3,0.2,0.8,0.2,1c0.3,0.3,0.8,0.9,1.1,1.3l0.7-0.1L144.8,44.1z M113.1,41.8l-0.4,0.7c1.2,0.3,2.5-0.7,3.6-1l0.2-0.4l-0.4-0.7
	c-0.3,0.2-1,0.5-1.3,0.7C114.4,41.3,113.5,41.7,113.1,41.8z M163.4,156.8l0.3,0.5c0.4,0.5,2.5,0.1,3.1,0.1l0.7-0.5l0.2,0.2
	c0.5-0.1,1.1-0.5,1.4-1l0.1-1.1l0.4,0.5l0.3,0.1l0.4-0.8c0.2-0.1,0.6-0.4,0.9-0.4l0.5-0.4c0-0.4-0.2-1-0.4-1.3
	c-0.1-0.5-0.5-1.2-0.9-1.6c-0.5,0.2-1.5,0.3-2,0.1l0.5-0.8l0.3,0.2h1c0-0.6-0.3-1.4-0.8-1.9l0.1-0.7l0.7-0.5l0.3-0.8l-0.7-0.4
	l-0.7-1.3l1.3,0.8l0.3-0.2l-0.3-1.5l0.9-0.5l-0.1-1c-0.4,0-1.3-0.1-1.7-0.2l-1.4,0.4l-1.4-0.4l-1.1,1.4l0.1,0.5l0.8-0.2l0.2,0.4
	l-0.5,0.8v0.8c-0.3,0.3-0.7,1-0.8,1.5l0.6,0.9l-0.2,0.5l0.6,0.1l-1.1,0.5l-0.1,0.5l-0.7,0.6v1.8c-0.3,0.5-0.4,1.7-0.5,2.2l0.6-0.2
	c0.1,0.4-0.3,0.9-0.5,1.2L163.4,156.8z M142.5,32.8c-0.9-0.2-2-0.4-2.9-0.2c-0.6,0.5-1.6,0.7-2.4,0.8c1.1,0.9,2.8,0.3,4.1,0.2l1-0.4
	L142.5,32.8z M231,156.6l0.6,1c0.2-0.4,0.6-1.1,0.6-1.6l-0.5-0.5l-0.7,0.2V156.6z M132.6,90.8l-0.7-0.4c-0.6,0.1-1.5,0.1-2.1,0.1
	l-0.5,0.4L129,92c0.6-0.4,1.6-0.9,2.4-1c0.2,0.2,0.7,0.5,0.9,0.6L132.6,90.8z M151.8,114l-1.8,0.5c-0.2-1-1.3-3-1.8-3.8l-1.1,0.1
	l-1.2-0.8l-1.1,1.7c0,0.8,0,2.9-0.3,3.6c-1.5-1.4-4.6-3.2-6.4-4.4l-0.2-1.4c-0.9,0-2.7-0.3-3.5-0.6c-0.7,0.2-2.4,0.8-3.1,0.5
	l-1.3-1.1l-1,0.4c-0.8,0-1.8-1.6-2.2-2.2l0.9-2.3l1.6-1.8l0.7-2.3c2-2,5.8-2.5,8.1-4.1l0.5-1.7l1.4-1.5c0.4-1.4,1.4-4.3,2.2-5.5
	l-1.1,0.7l-1.4,3.3l-2.3,2.7l-1.9,1.1l-1.6-0.3l0.7-1.8c-0.5-0.7-1.7-2.2-2.4-2.8h-2.3l-2.2,1.5l-0.3,2.6l-0.8-1.1l-1.2-0.1
	c0.4-1.5,2.6-3.8,3.7-4.8c0.7-0.7,1.7-2.5,2.2-3.4l1.2-0.4l0.7,1.5l-1.9,2.6c1.1-0.6,2.8-1.4,3.8-2.1l-0.5-0.5c1-1.3,2.7-2.9,4-3.9
	l0.6-1.9c-0.1-0.6-0.7-1.4-1.2-1.7l-0.7,0.2l0.4,0.6l-0.6-0.2l-0.1-0.5c0.4-0.3,1.3-0.8,1.8-0.9c1.1-0.8,3-1.5,4-2.4l-2.3,1.1
	l-0.7-0.2c0.7-0.4,2.5-1.5,3.3-1.6v0.2l0.4-0.7l-0.5,0.1v-1.4l0.9-1.7l0.2,0.4c0.3-0.1,0.8,0.2,1.1,0.3l-0.6-0.9l-0.5-0.2l-0.2-0.7
	l1-2.6l0.2,0.1l-0.2,1.4L146,69l0.6,1.4l0.1-0.8l-0.7-1.1h1.3l-1.4-0.3l-0.5-1.7h-0.6l-1-2.3l0.8-1.7l1.9-1l1-1.3
	c0.8-0.2,1.9-0.9,2-1.9c4-3,5.4-5,1.2-8.9c0.2-0.7-1.2-2.2-1.5-2.6c-0.1-0.8-0.2-2.4,0.2-3.1c0.4-0.3,1.3-0.3,1.8-0.3l0.4,0.7
	c1.4,0.4,3,2.4,3.9,3.5l-0.3,1.3c0.7,0.9,2.2,2.3,3.4,2.4l2-1c0.3-0.1,1.2,0.7,1.4,0.8c0.9,0.5,2.8,0.2,3.7,0
	c1.2,0.1,3.2,0.3,4.3-0.3l-0.4-0.5l0.1-0.7l-0.5-0.4l0.4-0.2l0.8,0.2c0.5-0.4,1.8-0.4,2.3-0.3l1.6,1l1.9-0.2l1.5,0.5
	c0.8,0,2.4-0.2,3.1-0.4l2-1.1c1.3-0.3,3.4-0.7,4.1-2c0.1-0.8,0.4-2-0.1-2.8c0.5-0.6,1.3-1.9,1.6-2.6c0.1-0.6,0.5-2.6,0.8-3.1
	c0-0.6-0.5-1.5-0.9-1.9l-0.3-1.4l-1.4-1.4c-0.2-0.6-0.9-1.6-1.3-2c-0.8-0.2-3-0.7-3.5-1.5c-2.7,0.6-6.4,0.2-9,1.6
	c-0.5,0.5-0.8,1.7-0.8,2.4l-0.4,0.5c-2.3,0.8-5.3,0.8-7.6,1.1l-0.6-0.3v-0.8c0.6-0.4,1.6-1.4,1.8-2.2l-0.5-0.3
	c0.3-0.4,0.7-1.6,0.9-2.1l0.7,0.4l1-0.1h-0.5V30l-0.5,0c-0.1-0.3,0.3-0.9,0.4-1.2l-0.2-0.2l0.2-0.6l-0.2-0.2
	c0.1-0.4,0.4-1.1,0.8-1.3l0.4-0.1l0.5-0.6l-0.8-0.2l-0.2,0.2l-0.7-0.2l0.3-0.2c0.1-0.1,0.2-0.2,0.4-0.2l0.2-0.1
	c-0.1,0-0.1,0-0.2,0.1h-0.1l-0.3,0.2c-0.1,0.1-0.2,0.1-0.3,0.2l-0.3-0.1c-0.3,0.2-0.9,0.4-1.3,0.4l-0.2-0.1
	c-1.2,0.1-2.8-0.2-3.8,0.5c-0.7,0-1.9-0.2-2.5,0.2c-0.8,0-2.4-0.3-3.2-0.6c-0.5,0-1.3-0.3-1.7-0.5l0.2-0.2l0.1-0.4l-0.4-0.5
	c1-0.9,0.9-2.1,0.4-3.2l0.4-0.2l0.2-0.7l-0.2-0.4l0.5-0.5l-0.2-0.4c-0.4-0.2-0.9-0.6-1.2-1c-0.7-0.3-2.8-1.2-3.5-1.4v-0.4l-1.1,0.1
	l-0.2,0.2c-1-0.5-2.3,0.1-3.2,0.7c-0.6,0.2-2,0.7-2.4,1.2l-1.5,0.2l0.1-0.2c-0.7,0.1-2.1,0.3-2.8,0.2c-1-0.4-2.4-0.6-3.5-0.2
	c-0.6,0.6-1.9,1.9-2.8,2c0.2,0.4,0,1.6-0.1,2l-1.3,1.1l-1.6,0.5l-0.1,0.4l-2,0.4c-0.8,0.6-3.1,2.4-3.6,3.2c-0.4,0.2-1.2,0.2-1.7,0
	l0.3-0.7l-0.1-0.4l1.4-0.7l-1.1-0.4l-0.2-0.8l0.8-1.3l-1.4-0.8l-1.1,0.5l-0.2,1.3l1,0.2l0.5,1.1l-2.9,1.7l0.6,0.6l-0.7,0.8l-1.3-0.8
	l-1.7,0.7l-2-0.2l-0.2-0.4c-1.2,0.4-3.7,1.5-4.9,2.2c-1.6-0.2-3.7,0.4-4.8,1.7l0.2,0.4c-1.3,0.6-4.5,2.4-5.8,3.1l1.8-1.5L99,34
	c-1,0.6-3,1.2-4.1,1.2l-1-0.9c-0.5,0.4-1.6,1-2.3,1c-0.9,0.3-2.9,0.5-3.8,0.4L87.3,35c-0.5,0.7-3,0.8-3.8,0.8l-3,1.6l-0.1,0.4
	c-1,0.9-3.3,2.3-4.5,2.8c-1.6,0.8-4.8,2.5-6.7,2l-0.7,0.7c-0.8,0-3.3-0.9-4-1.2l-1.4,0.8l-0.7-0.7l1-2.4L62.6,40
	C85.2,21.3,113.1,8.5,142,3.6l-0.5,0.7l0.3,0.5c-0.7,0.3-2.8,1.2-3.4,1.6l0.5,0.4l-1,0.4l0.2,0.7l-0.5,0.7L136.2,9l-1.9,2.2l1.1,0.1
	l-0.3,1l0.9,1.2l-0.5,0.5l0.7,1.2c1,0.5,2.3,0.6,3,1.6l-0.5,0.5l0.7-0.1c0.8,0.7,2.3,0.7,3.2,0.2c0.4-0.6,1.3-1.2,2-1.4l0.2-0.4
	l-1.4-0.6c0.3-0.1,0.9-0.4,1.1-0.6l1.3-0.3l0.6,0.8l0.3-0.3l1-0.1l0.6,0.5c0.9-0.1,2.2,0,3.1-0.1v-0.4c0.6,0.4,1.9,0.2,2.5,0.7
	l-0.2,0.3l0.1,0.4c0.6,0.2,2.2,0.6,2.8,0.6l0.2,0.4l0.7,0.2l-0.2-0.5l0.5-0.4c0.3,0.3,1,0.5,1.5,0.5l0.4,0.3c0.1,0.3-0.1,0.8-0.3,1
	l0.8,0.2l-0.6,0.4c1.5,0.6,3.8,2,5.3,2.6l-0.3,0.3l-0.4-0.2l-0.2,0.1l0.5,0.5l0.8,0.1l0.2-0.4c1.6-0.2,3.4,0.5,5,0.5
	c0.9,0.6,2.6,0.7,3.7,0.7c2.3,0.4,4.5,2.8,6.6,3.6c0.8,0.3,2.6,0.8,3.4,0.6c0.8-0.2,2.6-0.5,3.4-0.5c1.4,0.5,4.6,1.6,5.8,2.3
	c2.2,0.7,5.3,1.8,6.8,3.6c1.4,0.4,3.7,1.1,4.5,2.5c1.4,0.8,3.2,2.2,3.5,3.9l-0.8-0.1l0.1,0.5l-0.7,0.3l-0.2,0.5
	c0.3,0.4,0.7,1.2,0.6,1.7c0.7,1.7,2.4,4,3.7,5.3l0.7,1.4c0.3,0.3,1.8,1.4,1.9,1.9l-0.7,0.9c0.6,0.4,1.5,1.4,1.9,2l0.1,1.4l1,0.5
	c0.3,0.4,1.3,2.1,1.4,2.5l-0.1,0.5c0.3,0.8,0.7,2.4,0.7,3.3l-0.3,0.6l1.1,1.3c0.5,0,1.2,0.8,1.5,1.1l0.6-0.5
	c-0.1-0.6,0.3-1.7,0.5-2.2c-0.3-1-1.2-2.3-1.4-3.3l-0.2-0.2l-0.1-0.7l-0.4-0.1l0.1-1.2c-0.3-0.3-0.6-1-0.6-1.4l-1-1.4
	c0.1-1-0.3-2.9-0.7-3.8l0.2-0.9l-1-0.4l-1.1-2.1l0.2-0.2l1.1-0.3l0.4,0.2c0.2,1.9,2.1,3.6,3.4,4.9c-0.3,0.5-0.7,1.6-0.6,2.2l1.9,2.2
	l0.4-0.1c0.1,0.5,1,1.3,1.4,1.6l0.7,1.5l-0.2,0.1l-0.8-0.5l-1,0.3l-0.4,0.7c0.3,0.8,1.2,2.3,1.9,2.9c0.3,1.8,0.7,4.5,0.6,6.3l-0.1,1
	c0.2,0.6,0.7,1.9,1.4,2.2l-0.1,0.6l0.9,0.6c0.1,1,1.8,1.5,2.2,2.3l-0.4,1c0.6,1.4,0.8,4.1,0.6,5.6l-0.3,0.4c0.3,0.6,0.6,2.4,0.7,3.1
	L228,86l0.2,1.4c-1.2,0.9-2.2,2.5-2.5,4c-2.8,1.9-5.3,5.4-5.8,8.8l-0.4,0.2l-1.4-1.7l0.4-2l-0.6,0.2c-0.4,0.7-1,2.3-1.1,3.1l0.2,0.1
	c0.4,0.9,1.5,3.6,1.6,4.5l1.6,2.2l-0.5,1.9l-0.9,0.8l0.8,1.7l-0.8,1.4l0.3,2.1l-0.7,0.8c0,0.6,0.2,1.7,0.4,2.3l-0.9,1.5l0.1,2.3
	l-0.9,1.8c0.7,0.8,2.3,2.6,2.5,3.6l-0.1,3.1l1,3.1l1.1,1.1c0.2,0.9,0.5,2.9,0.4,3.8l1,0.7l1.1-0.9l1.4,1.3c0.6,0.2,1.6,0.9,2,1.4
	c-0.6,0.6-2.2,1-3,1.2l-1.1-0.7l-0.3,0.5c0.8,0.5,2.2,0.8,3.2,0.7l2,0.8l0.5-1.2c1.4,0.1,3.1,1,4.1,1.9l0.9-0.1l1.7,1.3h1l1.3,1.1
	l0.1,0.8c1.4,1.4,3.3,2.8,4.1,4.7l-0.3,0.3c-0.6-0.5-1.7-1.5-2.2-2.1l-1.4-1l-0.7-1.4c-0.6,0-1.6-0.6-2.1-1s-1.5-0.7-2-1
	c-0.7,0.2-2.1,0.4-2.8,0.3l1.1,1l-0.2,0.5l0.9,0.3l-0.7,1.1l0.8,0.1l-0.8,0.7l1.1,0.8l0.2,0.7c-0.4,0.2-1.4,0.6-1.9,0.5l-0.5,0.9
	l0.8,1.3c-0.3,0.5-0.8,1.5-1,2l-1.1,0.3l-0.7,1c-1.1,0-2.5-0.8-3.7-0.7l-0.4-0.7l0.1-0.7l-1.1-0.5l-0.1-0.7l-0.8-0.5l-0.8,0.5
	l-0.2,0.6l-1-0.4c0.1,0.6,0.8,1.4,1.4,1.5l-0.2,0.8l0.6,1.2l-0.1,1.4c-0.6,0.2-1.3,1.4-1.6,1.9c-0.8-0.8-2.5-2.1-2.8-3.3l1-0.2
	l-0.7-1.7c-0.6,0.5-1.3,1.6-1.4,2.3c-0.9,0.7-1.7,1.9-1.9,3.1l-1.1-0.2l-0.4-1.3l-1.2-0.7c-0.6,0.2-1.6,0-2.2-0.3
	c-0.2-0.5-1.3-1.2-1.7-1.5l-0.1-0.7l-1.4-0.5l-0.1-1.1l0.7-0.9l-0.5-0.1l-0.4-1.1l0.4-0.2l-0.2-1.1l-0.5-0.5l-0.2-1.6
	c-0.2-0.4-0.7-1.4-0.7-1.9l-0.8-0.6c0-1.1-0.6-2.5-1-3.5c0-0.6,0-1.9-0.5-2.3c-0.6,0.1-1.6,0.1-2.2-0.1l-0.7-1c-0.7,0-2-0.1-2.6-0.4
	l0.1-1l-0.7,0.1l-0.7,0.7c-0.4-0.3-0.1-2.3-0.1-2.7l-1.6,0.6l0.8-1.4l-1-0.2l-0.5,0.4l-0.7-0.5c-0.2-0.9-1.1-2.3-1.7-2.9
	c-0.3-0.4-1-1-1.5-1l-0.5-1.4l1.4-0.5c-0.9-0.9-2.8-1.8-4-1.5l-0.4-1.4l-1.1,0.7l0.5,1.1l-0.7,0.5c-0.4-0.1-1.2-0.2-1.6-0.2
	c-0.4-0.3-0.8-1.4-1-1.9l-0.9-0.1l-1.2-1.2c-0.6,0.1-1.8,0.1-2.5-0.1l-0.1,1.3l-0.8,0.2l-1.1-0.8l0.2-1.9l-0.7,1.6l-0.7-0.1
	l-0.5,2.1c0.3,0.6,0.9,1.8,1.4,2.2l-0.3,2.3l-1,1.4c-1.4-0.3-1.9-2.6-2.3-3.7l0.7-1l-1.4-0.5l0.1-2.1l-1,1.6l-1-1.3l0.2-1.5
	l-0.8-1.4c-1,1.5-1.4,3.9-1.1,5.6l-2.2-0.2l-1.1-0.9l-0.2-1l0.4-1.1l-0.7-1l-0.1-1c0.6-0.7,1.6-1.9,2.6-2.1l0.9,0.5
	c0-0.7,0.7-2.2,1-2.8c0-0.7,0.9-1.8,1.3-2.3l1.3-0.1l0.8-0.9l0.1-1.3l1.2-0.2c1.9-2,3.3-5,3.4-7.7l-1.7-0.4
	c-0.2-0.9-0.6-2.6-0.9-3.5l-1.7,0.4c-1.4-0.5-3.4-1.3-4.3-2.5c-0.8-0.2-2.3-0.8-3-1.2l-3.4,0.1c0.2-1.9-0.9-4.2-2-5.8l-2.3-1.5
	l-1,0.8l-0.3,2.1c0.4,1,1.2,3.4,2.3,3.8c-1.6,0.9-3.1,2.6-3.2,4.5c0.1,0.8,1,2.2,1.6,2.8c0.4,0.3,1.3,0.9,1.7,1.2l-0.8,2.3
	c0.7,1,1.5,3.6,1.9,4.7l-0.5,0.6c-0.7-0.1-2.2-0.2-2.9-0.1l-0.7,0.7C154,115.4,152.4,114.9,151.8,114z M168.9,29.2v-0.4
	c0-0.2,0-0.3,0-0.5V28c0,0.1,0,0.2,0,0.3v0.2v0.3C168.9,29,168.9,29.1,168.9,29.2z M262.8,312.7c-1.2,0.8-4.1,2.3-5.5,2.6
	c-0.5,0.7-1.9,2.5-1.9,3.4l1-0.5l-0.1-0.4c1.6-1.3,4.6-3,6.2-4.2c2.8-1.2,4.4-2.3,5.3-5.3h-0.6l-1.8,2.6L262.8,312.7z M246.1,303.7
	c-0.1,1.1-0.7,3-1.3,3.8s-1.7,2.5-1.9,3.4l2.5-3.1c0.3-0.9,1.2-2.5,1.8-3.3L246.1,303.7z M249.3,318.9l0.1-0.8l-2.6-0.2l0.8-2
	l1.6-1.5l-0.8-0.4l1.6-1l-0.1-0.6l-4.1,1.2l-0.5-0.5l-1.6-0.1l-1,0.5c-0.2,1.1-1.5,2.7-2.2,3.6c-0.9,0.9-1.9,1.8-2.6,2.8
	c-0.2,0.6-1.9,2.9-2.3,3.4c-0.8,0.4-3.5,1.8-4.1,2.3l-0.1,1.4l-2,1.1l-2.2,0.2l-1.3,1.5c0,0.5,0.1,1.7,0.5,2
	c7.4-2.6,16.2-6.3,23.1-10l-0.1-0.1l0.4-1.3l3-1.9L249.3,318.9z M254.4,299.6l0.3,1c-0.2,0.3-0.5,1-0.6,1.4l2,0.1
	c0.6-0.9,0.5-2.3,1.1-3.2l-0.6-1.4l-0.8,2.3l-0.2-1.1L254.4,299.6z M170.9,141.3l0.6,0.5l-0.1,0.8l0.4,0.7l1,0.1l0.5,0.7l1,0.2
	l0.2-0.8l-0.5-0.7l-1-0.4c-0.5-0.6-0.6-2.4-0.6-3.1c-1.8-1.1-3.2-1.1-5.2-0.4l-0.8-0.2c-0.3,0.2-0.9,0.8-1,1.2
	c0.1,0.5,0.6,1.2,1,1.5c0.9,0.1,2.1-0.2,2.8-0.8l1.4,0.2L170.9,141.3z M237.5,283l-0.3,2.2l0.8,1l1.8,0.6c0.3-1.6,0-4.4-0.4-5.9
	l-1.1,0.1L237.5,283z M249,253.2l-1,0.6c0,0.4-0.1,1.2-0.1,1.6l0.5,0.7c0.3-0.1,1-0.4,1.3-0.5c-0.1-0.3-0.3-0.9-0.4-1.2l0.5-1l1-0.1
	c0-0.4,0.1-1.2,0.1-1.6l-0.7-0.3c-0.3,0.2-1,0.5-1.3,0.7C249,252.3,249,252.9,249,253.2z M165.6,137.2c0-0.7-0.5-1.3-1-1.7l-0.2-0.1
	c-0.5,0.5-1.3,0.5-1.9,0.6l0.2,0.5c0.3,0.2,1,0.6,1.3,0.9c0.3,0,1-0.1,1.4-0.1L165.6,137.2z M248.1,236l1.8,1.1l1,2.4l-0.5,4.6
	l-1.5,0.3l1,3.7c-1.3,0.5-3.3,3.1-4.1,4.3l-0.2,1.9c-0.5,0.9-1,2.5-0.8,3.6l-1.1,1.6l1.4,0.5l1.3-0.4l0.7,1.6l1.2-0.1l0.5-1.4
	l-1.1-3.2l-2.4,0.4l1.7-1.9l1.1-2.2l2.2-2.7l1,0.9l1.4-0.4l0.4-3.5l2.2-2.6l0.9-2.5l-0.4-1.6l-0.9-0.4l-0.7-1.4l-1.6-1.2l-0.4-2.5
	c-0.7-0.9-2.8-1.6-3.8-1.9l-0.9,1.6L248.1,236z M244.1,291.2l-1.3,0.8l0.1,1.7l1.1,2.4h-1.1c0.8,1.6,1.3,1.9,3.1,2v-0.7l0.8-0.1
	l-0.5,0.8l0.2,0.7c0.9,0,2.5-1.2,3.2-1.8l1.9-0.1l0.4-0.9c0.8,0.3,2.6-0.1,3.4-0.3l-0.2-0.8l-1,0.2l-0.3-0.9l-3.2,1
	c-0.4,0.5-1.5,1.2-2.1,1.4l-1.2-0.8l-0.4-1.4l1-1.3l-0.2-1.5l-1.4-0.6v-0.8L246,290l-0.4,0.8L244.1,291.2z M261.7,298.3l-1.6,1.1
	l0.1,0.8l-1.5,1.6l-1.2-0.1c-0.5,0.8-1.4,2-2.2,2.6l-0.2,1.7l0.6,0.1c0.5-0.7,1.5-2.3,2.4-2.5l0.4-1l1.9-0.4l-0.3,1.1l1.3,0.5
	l3.2-1.1l0.2-1.1l-1.4-0.4l0.6-1.4l1.7,0.7l-0.1-1.7c-0.7-0.7-1.8-1.6-2.7-2.2l-2.2,0.7L261.7,298.3z M225.5,162.5l-0.3,0.6l0.8-0.1
	l0.1-0.2l-0.2-0.8c0.2-0.2,0.5-0.9,0.6-1.2l-0.5-0.7l-0.2-0.1c0,0.5-0.2,1.4-0.5,1.9L225.5,162.5z M230.5,141
	c0.4,0.4,1.1,0.7,1.6,1.1l0.8-0.6l0.2-0.8c-0.8-0.5-1.7-0.9-2.6-1.2l-0.3,0.7L230.5,141z M247.4,226l-1.8,1l-2.8,0.2
	c0.5,0.9,2,2.6,2.7,3.4l-1,1.4l0.6,1.6l1.6,1l1.1-1.5l-1-2l2.6-1.3l-0.7-2.3l1-2.3l-2-1v1.4L247.4,226z M230.6,216.6v1.6l2,1.7
	l2,0.6c0.8,0.6,2.5,2,3,2.8l1.8,1.2c0.6,0.7,2,1.8,2.9,2.1l-0.6-1.7l1.7-0.2l-1.1-0.8l-2.5-0.1l-1.7-2.4l1.8-1.4
	c-1.3-0.3-4.5-1-5.6-1.6c-1.2-1.1-3.2-1.9-4.6-2.5l-0.1,0.7L230.6,216.6z M296.8,120.9c0-0.1,0.3-0.5,0.3-0.5c0-0.1-0.3-0.8-0.3-1
	l-0.2-0.1c0,0.2-0.3,0.9-0.3,1.1L296.8,120.9z M249.5,300.2c-0.1-0.5-0.1-1.1-0.2-1.6l-1.1-0.1c-0.5,0.3-1.4,0.8-1.9,1.1
	C247.3,299.9,248.4,300.2,249.5,300.2z M222.6,114.8c0.3-0.6,0.4-1.6,0.3-2.2l-0.4-0.4c-0.1,0.6-0.1,1.4-0.2,2
	c-0.5,0.4-1.3,0.9-1.8,1.4c0.2,0.2,0.8,0.6,1,0.7l0.2,0.6c0.4-0.2,0.8-0.9,1-1.2L222.6,114.8z M296.4,117l0.1-0.1
	c0-0.2,0.1-0.7,0.2-0.8l-0.4-0.7l-0.3-0.1c0,0.4,0.1,1.1,0.2,1.5L296.4,117z M296.4,113.1c0,0.4,0.1,1.2,0.2,1.6l0.2,0.1l0.2-0.3
	c0.1,0.1,0.5,0.3,0.7,0.3l0.4-0.7l0.5-0.1l-0.1-0.7c-0.6-0.2-1.2-1.1-1.7-1.5h-0.1C296.6,112.2,296.4,112.8,296.4,113.1z
	 M296.8,124.2c0.1,0.1,0.3,0.3,0.4,0.3v-0.8l-0.2-0.2l-0.4,0.2L296.8,124.2z M216.3,301.8c-0.2,0.3-0.6,0.9-0.8,1.1
	c0.1,0.3,0.4,1,0.5,1.4c0.5-0.1,1.6-0.2,2.1-0.2c0.6-0.4,1.2-1.1,1.7-1.5c0-0.8,0.4-1.6,0.9-2.2L220,300c-0.3,0.1-1,0.4-1.3,0.5
	C218,300.8,217,301.4,216.3,301.8z M296.7,118.5l-0.4-1.1h-0.2l0.4,1.1H296.7z M273.6,302.6l-0.4,1c0.1,0.3,0.2,1,0.2,1.3
	c0.5,0.2,1,0.6,1.5,0.7c0.2-0.2,0.7-0.6,0.9-0.7l-0.1-0.5l1.3-0.8c-0.2-0.3-0.6-0.8-0.7-1.1l-0.6-0.3c-0.4,0.2-1.1,0.7-1.4,1
	C274.1,303,273.7,302.7,273.6,302.6z M218.2,99.8l-0.1,1.3l0.8,1.5l0.1,2c0.7,0.6,1.9,2.3,2.3,3l0.4-0.3l0.2-1.1l-1-1.2l0.1-0.6
	l-0.7-1.3l0.1-0.8l-1.5-2.2L218.2,99.8z M257.8,295.5l0.4,0.5l-1.4,0.8l0.9,0.6l0.7-0.4l0.7,0.9l0.8-1.1c-0.4-0.1-1.3-0.4-1.4-0.8
	l1.9-0.8c-0.4-0.2-1.3-0.8-1.7-1l-1-0.1l-2.1,1.4H257.8z M74.6,187.2c0.4-0.1,1.2-0.4,1.6-0.5c-0.2-0.2-0.7-0.7-0.9-1l-0.8-0.2
	c-0.3,0.1-0.9,0.4-1.2,0.6l-0.2,0.8C73.4,187,74.2,187.2,74.6,187.2z M68.1,194l-1-0.1c-0.1,0.8-0.2,1.9-0.4,2.8
	c0.2,0.8-0.1,1.8-0.2,2.6c0.3,0,0.8,0.1,1,0.1L68,199c0.4,0.1,1.2,0.2,1.6,0.2C68.9,197.5,68.3,195.7,68.1,194z M78.2,231.2h-0.5
	c0-0.1-0.6-0.8-0.6-0.8l-0.4,0.8l0.4,0.9c0.5,0.4,1.2,0.9,1.7,1.3c0.1-0.1,0.2-0.3,0.3-0.4c0.4,0.1,1.1,0.5,1.4,0.6
	C79.6,232.8,78.6,232.1,78.2,231.2z M69.8,217.6c0.4,0.8,0.9,1.7,1.3,2.5h0.6l-0.7-0.8l0.3-0.1c-0.3-0.9-0.7-1.9-1.2-2.6
	c0-0.3,0.1-0.9,0.1-1.3h-0.8c0.1,0.7,0.5,1.6,0.6,2.3L69.8,217.6z M71.4,185.5c-0.8,0.5-1.9,0.5-2.8,0.7l-0.4,0.8l0.8,0.6v0.8
	c0.8,0,1.7-0.1,2.5-0.2c0.3-0.3,0.9-0.9,1.1-1.3l-0.7-0.8l-0.1-1L71.4,185.5z M201.5,332.3l-0.6-1.1l-1.1-0.7l0.1-1.2
	c-0.4-0.4-1.3-0.8-1.9-0.9c-0.2-0.8-3-1.6-3.7-1.9l-0.3,1l-0.7-0.8c0.1-1,0.5-2.2,1.1-3.2l0.7-1.2c-0.1,0.1-0.1,0.2-0.2,0.3
	c0.1-0.1,0.1-0.2,0.2-0.3l-0.2,0.4c-0.1,0.2-0.2,0.4-0.4,0.6c0.1-0.1,0.2-0.3,0.3-0.4l0,0l-0.3,0.5c-0.2,0.3-0.4,0.6-0.4,0.8
	l-0.4-1.1l0.7-1.4l-1.1-0.8V319l-1.2-0.7l-1.1-1.8c-0.3-1.1-1-2.6-2-3.2c-2.5,1.5-4.2,3.1-7.3,2.2l0.7-2.2l-0.7-1.6l-2-1.8l0.2-0.7
	l-1.4-0.1c-0.6-0.4-2.1-1.5-2.5-2.2c0-1-0.9-2.1-1.6-2.7h-2.2l0.2,0.7l-0.8,1l-1-0.4l-0.4,0.3l-1.6-0.4l-0.4,0.6
	c-1-0.1-3.5,0.1-4.6,0.2l0.1,1.3c-0.8,0.9-3.8,1.6-4.9,1.9c-2,1.3-5.1,2.8-7.4,3.4l-0.1,0.7c-1.3,0.2-3.6,0.6-4.9,0.4l-1,1.1
	c0.1,0.9,0.2,2.8,0.1,3.6l-1.3,1.3l-0.5,2.7l-1.4-0.2l-1.4,1l0.7,0.7h-2.5l-1.1,0.8l-1.1,0.2l-2.2-2c-0.3-1.1-0.9-3.3-1.3-4.3
	c-0.5-0.7-1.4-2.1-1.7-2.8l-0.2-2.7c0.2-0.4-1.5-3.1-1.7-3.4l-0.1-5.7c0.4-0.9,0.8-2.7,0.7-3.7c-4.5,0.1-4.8-0.2-7.3-3.8l1.3-0.2
	c-0.6-1.5-2.5-3.5-3.8-4.3l-0.1-1.4l-1.1-1.9c-3.1-0.9-7.1-3-10.1-4.3c-2.2-1.5-5.3-4.1-7.4-5.7l0.4-2.3c-0.8-1.4-3.2-1.7-4.6-2
	l-1.9-2.1L95,270l-1.4-1.7c0-1.3,0.1-3.9,0.3-5.1l-1.1-0.5l-0.6-1.3l-1,0.1l-1.9-2c0.2,0.3,0.7,0.8,1,1.1l-0.2,0.8l-0.4,0.2
	c-0.3,0.9-0.6,2.3-0.8,3.2l0.5,1l-0.1,0.7L90,268l-0.4,0.7L89,269c-0.1,0.4-0.1,1.1,0.1,1.4c-0.1,0.3-0.2,0.9-0.2,1.2
	c0.2-0.3,0.5-0.8,0.7-1.1c0.3-0.1,0.8-0.3,1-0.4l0.6,0.2l0.2,0.8c-0.1,0.2-0.4,0.6-0.6,0.8c-0.3,0.1-0.8,0.4-1,0.5l-0.1,0.8l0.4,0.2
	l-0.2,0.4c1,0.5,3.2,2.2,4.1,2.9c1.3-0.1,5.4-0.1,6.7-0.3l0.1,0.3c-0.2,0.2-0.7,0.6-1,0.6c-1.4,2.9,0.8,4.4,2.7,6.2
	c0.2,0.6,0.6,2.5,1.3,2.8l-0.2,0.4l-1.8,0.7c-0.7-0.2-1.9,0.2-2.5,0.5l-0.9-0.6c-0.4-0.1-1.1,0.3-1.4,0.6l-0.4,1.1h-0.4
	c-0.5-0.5-1.8-0.8-2.5-0.9l-0.7,0.6c-0.5,0.1-1.6-0.6-2-0.9l-1-0.2l-0.4,0.6l-1.3-0.3l-1-1c-1.4-0.3-3.1-1.4-4.4-1.9
	c-0.3,0.1-1,0.3-1.2,0.7c-1.5-0.5-4.7-2.2-6.1-3c-1.2-0.3-3.3-0.7-4-1.9c-1.6-0.4-3.5-1.6-4.6-2.9c-0.5-0.5-1.3-0.3-1.8-0.8h-0.6
	c-0.3-0.4-1.1-1.2-1.6-1.4l-1.2-1.4l0.2-1.1l0.7-0.6c-0.1-0.4,0.4-1.4,0.6-1.8v-1l0.4,0.3l0.4-0.7l0.4,0.1c0.3-0.3,0.7-0.9,0.8-1.3
	l-0.2-0.9l0.4-0.6c-0.7-1.4-0.4-3.4,0.4-4.7c0-0.7-0.2-2.4-0.7-3l0.2-2.3c0.3-0.5,1.1-1.3,1.6-1.6l0.7-2.2c0-0.7-0.3-1.9-0.5-2.5
	l0.3-1.2l0.4-0.2c0.2-0.4,0.4-1.3,0.3-1.8c0.5-0.9,1.1-4,1.3-5l-0.6-0.8c0.7-0.2,1.6-0.7,2.3-0.8l0.2-0.2c-1.1-0.3-2.4,0.5-3.4,0.4
	l-0.5-0.3l0.2-2.2l1.3-2.6l-0.2-0.1c-0.7,0.9-1.6,2.8-1.9,3.8c-1.2,2.3-2.4,5.5-2.6,8.1l-0.5-0.2l-0.9,0.7c0,0.4,0.5,3.3,0.3,3.7
	l-0.9,1.6l-0.5-0.2c-0.7,0.7-1.8,2.4-2.3,3.3l0.6,2.5c-0.2,1-0.9,3-1.4,3.8c0.1,1.3,0.9,4,1.3,5.3l0.6,4.4c0.2,0.4,0.7,1.5,0.6,2
	l-0.5,0.4c-0.3-0.2-1-0.6-1.3-0.8l0.4,1.1l0.4,0.8c-0.2,0.5,0,1.6,0.2,2.2c1.3,1.4,3.9,3,5.3,4.3c1.6,1.1,3.7,2.2,5.2,3.4
	c0.8,0.7,2.1,1.3,2.9,1.9c0.6,0.1,1.7,0.5,2.1,1c-0.3,0.6-1.2,1-1.5,1.6c-0.5,0-2.1,0.7-2.5,1c-4.7,1.5-10.2,1.2-14.9-0.1
	c-3.5-1.1-7.3-3.4-10.7-4.7c-4.3-4.6-9.1-10.6-12.9-15.7c-12.8-17.6-22.5-38.2-27.5-59.3v0.1c-1-3.7-2.2-9.8-2.8-13.6l1.6,0.6
	l0.2-0.6c0.9,0.4,2.1,0.9,3.1,1l0.8-1.3l0.1-1.4l0.6-0.7l0.1-0.8H10c-0.2-0.8-1.2-3.2-1-4c-0.5-0.6-0.7-2.5-0.7-3.3
	c0.4-0.9,1.1-2.1,1.9-2.6l0.8-2.1c-0.2-2.6-0.4-6.6-1-9.1c-0.4-2.4-1.6-6.1-1.8-8.5c0.8-3.4,1.2-7.4,1.2-11c0-0.3-0.6-5.2-0.4-5.4
	c-0.1-0.6,1.1-3,1.3-3.5c0.6-0.9,2.3-3.6,2.8-4.6c0.3-0.3,1.6-1.8,1.6-2.3c0.8-1.5,2-3.8,4.1-3.5c1.1-0.7,2.1-1.9,2.9-3
	c0.3,0,1-0.1,1.2-0.4c0.3-0.4,1.2-1.5,1.5-1.9c0.1-0.5,0.5-1.3,1-1.5l0.2,0.1l0.5-0.7c0.3-0.1,1.4-0.1,1.7-0.1l0.6,0.5
	c0.8-0.3,2-0.9,2.5-1.7c-0.3,1.2,0.6,2.7,1.4,3.5l0.9,0.1c0.7,1.6,3,2,4.6,1.8l0.8,0.5c0.6-0.1,1.6-0.9,2-1.3l0.7,0.3h-0.1l0.8,0.4
	c0,0.6,0.5,1.5,0.8,2h0.6c0.9,0.8,1.8,2.3,1.8,3.5l0.8,0.8l0.9,0.2l0.8,1.1l0.2,1.6c1.6,1.8,2.2,2.6,1.7,5c0.4,0.7,1.1,2.2,1.1,3
	l1.2,2l2.3-0.2c0.5,0.4,1.7,1.3,2.3,1.5c1.2,1.2,1.6,3.6,2.2,5.1c0.6,0.6,2.1,1.8,2.8,2.2l-0.1,1.4l-0.9,1.1v1.9
	c-0.2,0.6-0.7,2.2-0.6,2.8c0.7,1,1.2,2.8,1.3,4c1.6,1.7,1.8,6.4,2.2,8.5c0.1,0.4,0,1.3-0.1,1.7c0.7,1.1,1.5,3.2,0.8,4.4
	c0,0.8,0.9,2.5,1.4,3.2v1.3l-1,0.1l1,1.4l-0.3,0.2l-1.1-0.7l-0.9,0.1l-0.3,0.8h-1.6l-1.1-1.1l-1,0.5l0.2,1l-0.8,0.7
	c-0.1,1-0.5,3.1,0.1,4c0.2,1.1,0.1,3.5,0,4.6l-1.3,1.3c0.2,1.8,0.4,5.5,0.2,7.3c0.4,0.5,1.4,1.2,1.9,1.4l1.1-1
	c2.6,0.5,3.4,3,3.8,5.3l-0.5,1c0.2,0.3,0.4,1,0.2,1.4l0.7,1.9l-0.3,0.7c1.1,1.5,2,5.7,2.3,7.5c0.5,0.4,1.6,1.3,2.2,1.6
	c0.5,0.6,1.4,2.1,1.6,2.9l-0.5,0.9l0.8,0.1c0.4,1.5,1.2,3.7,3.1,3.8v-0.2c0.9,0.1,2.1-0.5,2.9-0.5l0.4,0.6l-0.4-0.5
	c1-0.3,2.2-0.3,3.3-0.3l1.1-1l0.9-0.1l0.2-1.1l1,0.2c-0.7-0.5-1.2-1.6-1.4-2.4l-1.6-0.5l-1.8-2.3l0.1-1.9l-1-1.7h-0.8l-0.9-1V223
	l-1-1.8c0.6-0.8,1.5-2.4,1.5-3.5l1.7,0.1l0.3-1.4l2.5,1l1.4,2.3l1.6-0.1l1.4,3c2.2,0.8,4.1,2.8,5.3,4.8c0.3,1.5,1,4.4,1.6,5.7
	c0.7,0.5,2,1.8,2.3,2.6l2.1,0.9l0.8-0.4l0.7-1.2c0-0.6-0.2-1.6-0.5-2c0.1-0.5,0-2.9,0-3.5c-0.4-0.9-0.7-2.7-0.5-3.7l1,0.7l2.1,0.1
	l0.1-1.2l2,1.3l0.3-0.3c-0.9-0.7-2-1.9-3.1-2.2c-0.4-0.7-1.5-1.5-2.3-1.8c-0.1,0-0.9,0.8-1,0.8l0.1,0.9l1.1,1.3l-0.8,0.2
	c-0.6-0.9-2.4-2-3.4-2.4l-0.2-1l1-0.2l-0.5-1.8c0.3-0.1,1.5,0.8,1.8,1c0-0.1,0.1-0.5,0.1-0.6l-0.9-2.3l0.6-0.5l-1-1.1
	c-0.8,0.2-2.4-0.1-3.1-0.3l-0.4,0.3l-0.7-0.5l-0.1-0.5l-2.3,0.7c-0.6-0.3-1.9-0.4-2.6-0.3c-0.2,0.4-0.8,1.3-1.3,1.6l0.2,1.6
	l-0.5-0.1l-1.1-1.8c-0.6-0.3-2-0.9-2.5-1.3l0.5-0.8l0.4-0.2c-0.2-0.4-0.6-1.4-0.7-1.9l-1.3-1.7l-0.5,1.6c-0.4-0.3-0.9-1.1-1.1-1.6
	l0.5-1.3l-0.5-0.1c-0.7,0.4-1.2,1.2-1.4,2l-0.7-0.5c-0.2,0.6-0.5,1.7-0.5,2.3l-1,0.5l-0.2-1.8l-0.7,0.9l-0.6-1l-1.3,1.3l-0.5-1.2
	l0.2-1.7c0.5-0.6,1.6-1.6,2.2-1.9c0.2-0.3,1.3-2.5,1.7-2.5l0.1-0.4l0.4-0.2l0.2-1.1c0.7-0.4,1.9-0.8,2.8-0.7l0.2-0.4v-0.4
	c0.3-0.3,0.6-1,0.6-1.5c0-0.7,0.2-2.2,0.5-2.9l0.1-1.6l1-1.7l0.2,0.2l0.6-0.9l0.7-0.2v-1.1l-0.9-0.3l0.5-0.6l0.7-0.1l0.2,1.1
	l-0.2-1.1l0.2,0.3v-1.3l-1-1.1c-0.4,0.2-1.1,0.4-1.5,0.2l-0.8,0.7l-0.6,1.7l-1.4,1.2l-1,2.2l0.4,1.3l-0.3,0.5l-0.5-0.4
	c-0.2,1.3-0.2,4.1-1.1,5.1l-0.7-0.1l0.5-1.3L74,200l-1.4-0.4l-0.3,1.4l-1,0.1l-0.3-0.7l-1.9-0.5l-0.4-0.7c0.6-0.3,1.6-0.2,2.2,0.2
	l1.6-1.7l0.1-0.8l0.7-0.7c-0.1-0.7,0.1-1.6,0.6-2.1c-0.6-2.1,1.1-4.3,2.2-5.9l1.7-0.8c0.1-0.5,0.3-1.8,0.5-2.3
	c-0.2-0.5-1-1.2-1.4-1.5c0.1-0.6-1.1-1.7-1.4-2l0.2-3.3l-0.8-2.4c-0.6-0.1-1.7-0.1-2.3,0.1l-1.4-1.6l-0.4-2.2l-0.7-0.1
	c-0.5-0.7-1.8-1.5-2.6-1.8l-1.1,0.7l-0.8-1.1l-1.3-0.4l-0.4-1.4c-0.2-0.3-1.1-1.1-1.4-1.4c0-1.8,0.8-4.8-1-6.2l0.2-1
	c0.4-0.4,1.3-0.9,1.9-1l0.5-1.7l-0.4-0.8c0.3-0.5,0.5-1.4,0.4-1.9c0.6,0.3,1.9,0.6,2.6,0.5l0.3-0.8l0.8-0.3l1.2,0.4l0.5,0.8
	c0.8,0.2,1.8,0.9,2.6,0.9c0.8-0.4,1.9-0.2,2.7,0.1l0.9-0.5l1,2.6c-0.4,1-0.8,3.1-0.8,4.1c-0.7,1.7-0.5,4.1-0.7,5.8l1.1,0.9l3.9,0.4
	c0.8-0.6,2.5-1.9,3.1-2.6l0.9-2.2l1.4-0.1l0.3,2l-0.7,2.5l2.3-0.4l-0.9,1.4l1.6,3.4l1.6,0.4c1.2,3.4,1.2,2.9,4.5,4
	c0.4,0.6,1.3,2,1.1,2.8l0.4,0.2l0.2,1l-0.4,0.3l1.1,0.8c0.4-0.3,1.3-0.6,1.8-0.7c1-0.8,3.1-1.2,4.3-0.6l0.3,1
	c0.5,0.1,1.1,0.8,1.4,1.1c-0.4,0.1-1.3,0.1-1.7-0.1l-0.5,0.2l-0.2,0.7l-0.8-0.1l0.1-0.4l-1.6-0.6c-0.4,0.2-1.2,0.6-1.7,0.7l-0.2,1.3
	l-0.7,0.1c0.2,0.6,0.8,1.6,1.3,1.9c-0.2,0.6-0.6,1.9-0.9,2.3c0.6,0.4,2.8,3.1,3.3,3.7l0.1,1.3l-0.4,0.2l0.4,1.2h0.9
	c0.3,0.3,0.9,1,1.2,1.4c1.2-0.7,2.9-1.7,4.3-1.3l1.1,0.8l-1,1.4l0.4,0.8c0.7-0.2,2-0.6,2.6-0.8l-0.4-0.3l0.4-1l1-0.5
	c0.4,0.4,1.8,1.8,2,2.2c0.1,0.6,0.4,1.7,0.8,2.2l1.6,0.5l0.3-1.4c-0.8-1.7-2.7-3-3.7-4.6l0.8-1l0.2-1.3l2-0.5l1.6-1.1
	c2-0.1,4.6,0.8,6.3,1.8l0.8-0.5l0.4-1.5l-1.1-1.2l-1.7-0.3l-1.1,0.6c-1.1-0.4-3.3-1.4-4.4-2l-2.9,0.2c-0.7,0.5-1.5,1.7-1.9,2.5
	l-2.5-0.2l-0.8-1c-1.3,0.3-4.1,0.7-5.4,0.4l-0.2-1.4l-1.7-0.3l-0.4-1.4c2-0.8,4.4-2.8,6.4-3.7l1.1-1c-0.7-0.4-2-1.3-2.7-1.8
	l-0.7-1.5l0.8-1.7c1.3-0.5,5.3-1.2,6.8-1.4c1,0.3,2.8,2.3,3.4,3.2l2.4,1.5c2.6,1.1,6.8,1.7,9.4,2.9c1.1,0.4,3.8,1.4,4.5,2.4l0.4,1.1
	l2,0.3c0.2,0.8,0.8,1.7,1.4,2.1l-0.2,2.7l-1-0.5l-0.7,1.4l1,0.2l-0.4,1.7l0.8,2v3.8c-0.1,0.8-0.7,1.6-1.3,2h-1.4l-1.3-0.8l-1-4
	l-0.5-0.4l-0.5,2l-2.5,1.9l0.2,2.3l0.8-0.5l0.4-1h1l0.4,2.5l0.9,0.3l0.7-1.4l2.9,0.2c0.4,0.4,0.5,1.2,0.5,1.7l1.4-0.7l0.4-1.3
	l1.2-0.6l0.5-1.3l1.1,2l-0.5,1.1l-1-0.5l-0.8,0.8v1l1.3,0.6l1-0.8c1.2,0.3,4,0.6,5.2,0.7l0.4,0.4l-1.4,0.5l0.7,0.8l0.9-0.2l1.3,0.8
	l1.4-0.1l0.1,1.5l1.4-0.8l-0.1-1.4l0.7-0.4c1.8,1.2,3.1,4,4,5.9l0.9-0.8c-0.1-0.3-0.4-1.4-0.2-1.7l-0.8-0.5l0.7-0.8
	c0.1-0.5,0.2-1.9,0.5-2.3l1.9-1.3l1.1-1.6l0.6-0.2l1.4,1.1l-0.2,1.1l-1.1,1.4c0.6,1.4-0.6,3.7-1,4.9l0.5,1.4
	c-0.5,1.4-2.2,2.5-3.2,3.5l0.8,0.6l0.5-0.6l1-0.2c0.2-0.6,0.9-1.4,1.4-1.7l-0.1-1.3l0.7-1.3l-0.8-0.4c-0.1-0.8,0.9-2.4,1.3-3
	l-0.4-1.9l1.6-1l0.2-1.5l0.3,0.1c0.3,0.8-0.4,2.3-0.7,3.1l0.6,0.5l0.1-1.5l1.3-0.5l1.4,0.1l1,1.4c-0.3-1-0.2-3,0-4
	c0.6-0.3,1.9-0.2,2.5,0l1.3-0.2l-0.4-1.1l0.7-1.4h0.6l1.1-1l1.4-0.3l0.1-0.6l1.7,0.1l0.5,0.4l1-1.3l0.9-0.1
	c-0.2-1.1,0.4-2.2,1.1-2.9l0.9,0.4l-0.5,0.7h1.1l0.4,1l0.3-0.6l1.3-0.5c0.5,0.2,1.7,0.6,2.1,1.1l0.4,1.1c-0.2,0.9-1.3,2.2-1.4,3.1
	l1.7,0.2l0.4-0.6l0.8,1.1v-0.7c0.4-0.6,1.9-1.1,2.6-1.3l0.6,0.8l2.4-1.1l-0.8-1.3c0.6-0.1,1.6-0.6,2-1l1.4,0.3l1.1,0.8l0.2,0.9
	l1.7,0.8l1.4-0.1l-1-2l1.4-0.1l0.4-1.2l1.4-0.5l-0.1-0.7l1-0.7l-1.8-0.9l-0.1-1.2l4.4-4c1,0.3,2.7-0.3,3.6-0.7
	c0.3-1,0.9-3.2,1.7-3.9l1-0.2l1.4,0.6l0.9-0.7c-0.2-0.6,0-1.8,0.2-2.3l0.7-1.3l0.1-1.4l2-1l-0.5-1l-1.4,0.4l-0.8-0.5
	c0.5-0.9,1.1-2.7,0.9-3.8c1.1-2.5,3.8-5.2,5.5-7.4h1.3l0.5-0.7l-1.5,0.4l0.1-2.3l1.6-2l1,0.7l0.4,1.4l2-0.2l0.4,0.4l0.1,0.8
	c-0.5,0.4-1,1.5-1.1,2l-0.8,0.3l-0.3,0.9l0.3,1l-0.7,0.5l-0.8-0.1l0.5,1l1-0.4l0.8,0.5h0.1l0.8,1.2l-0.2,1.2c0.6-0.6,2-1.2,2.8-1.4
	c0.3-0.3,1-0.5,1.4-0.5l0.5,0.3l-0.5,1.9c0.3,0.6,1.6,3.1,1.5,3.8l1.6,2.3c0.3,0.6,0.9,1.4,1.5,1.7l-1.7,1.3l1,3.1l-0.8,0.3l0.6,1.3
	l-0.7,1.3c0.9,0.3,2.1,1.9,2.6,2.6l0.8,0.2l0.8-1.1l2.8,1l-0.3,1.1l1.4,1l1-0.2l0.2,2.4l2,1.2l-0.3,2l1.7,1.1l1,2.6
	c-1.4,0-5.8-1.1-7.3-1.5c-1,0-2.9-1.5-3.7-2.1l-0.7-1.4l-0.8-0.4l0.3-1.9c-1.2-2-3.3-5.4-4-7.6l-2.6-1.6l-0.1,1.2l1.4,1.1l1.3,3.2
	l-2.7-0.1c-0.1,0.5-0.2,2.3-0.4,2.8l2,3.8l1.5-0.3c-0.2,1-0.8,3.2-1.3,4.1l-1.3-0.8l-1.1,1.4l0.1,1.7c-1.3,1.3-3.2,4.3-3.8,6
	c0.5,2.9,0.9,9.1,0.9,12.1l1.6-1.3l1.3,0.4l1.2-0.7l-0.2-1.3l1.1-1l2.9-0.1l1.3,1l0.9,2.1c1.1,0.8,2.9,3,3.7,4.1
	c0.2,1,0.6,4.1,1.3,4.9c-0.1,3.2,1.5,8.5-1.2,10.9l-1.4,0.1l-0.8,2.5l0.2,0.7l-0.6,0.4l-0.1,1.8l1,1c-0.4,0.5-0.6,1.6-0.7,2.2
	c-0.4,0.4-0.9,1.3-1,1.8l0.5,0.7l-0.1,0.3c1.2-0.6,3.5,0.2,4.7,0.5c0.8,0.3,2,1.6,2.5,2.3l0.1,1.3c-0.7,0.6-1.6,2.1-1.9,2.9
	l-1.3,1.2c-0.7-0.3-1.1-1.4-1.3-2l-1.9-1l1-1.1c-0.7-0.2-2.2-0.7-2.9-0.3l0.1,0.4l-0.4,0.4l-0.3-0.2l-1,0.2c0-0.3-0.1-1.1,0.1-1.4
	l-0.3-0.2l-0.2-1.1l-0.2-0.2c-0.5,0.3-1.4,0.5-2,0.5l-1.8,1.9c-0.2,0.9-1.3,2.3-2,2.9l0.4-1.3l-0.7-0.4l0.5-1.8l-1.3-0.4
	c-1,1.3-2.2,3.4-2.4,5.1l-1.5,1l-0.4,1.2l1.4,0.7l1.5-0.4l0.5,0.7l1.5-0.3l1.1-2.2c0.8,0,2.2-0.3,2.8-0.8l0.8,0.7l-2,1.9
	c0,0.9-0.8,2.4-1.4,3.1l-0.2,1.6l2.3-0.2c1.4,1.2,3.6,2.2,5.5,2.5l0.7,1.2l-0.8,1.1l1,0.6l1.3-0.2c0.2,0.5,0.8,2.4,0.8,2.9l-1,0.7
	c-0.7,6.7-1.3,8.8-5.8,13.9c-1,0.5-2.8,1.6-3.3,2.6l-1-0.2c-1,2-3.9,3.7-5.8,4.6l-0.1,2l-1.2,0.5l-1-1l0.3-0.8l-3.2,0.5
	c-1.8,1.1-3.9,3.4-5,5.1l-0.2,1.3l5.2,2.6l2.5,0.2l1.9,0.8c0.3,0.4,1.8,2.2,2.2,2.5l0.6,2.8c-0.9,1-3.2,2.9-4.4,3.7
	c-0.9,1.2-3.4,3.3-4.6,4.3l-1.2-0.7l0.5-1.3c-1.1-0.3-3.3-0.3-4.4-0.1c-0.8-0.2-2.3-1.4-2.9-1.9c-1.2-0.3-3.5-0.2-4.7,0.2l0.1-1.3
	l-2.2,0.4c0.5,1.3-1.1,4.7-1.6,5.9l0.4,1.1l1.7-0.2c0.7,0.5,1.8,1.7,2.1,2.5c0.9,0.4,2.4,0.6,3.4,0.4c0.5,0.1,1.8,0.6,2.3,0.5
	c0.9,0.2,2.5,0.8,3.2,1.3l0.4,1l-0.1,0.7c0.2,0.3,0.7,1,0.8,1.3c0.8-0.1,2,0.7,2.5,1.2l0.1,0.5c-1.4,1.1-7-0.1-8.6-0.3l-0.5-0.7
	L201.5,332.3z M79.9,203.7l-0.3-0.1c-0.2,0-0.3-0.1-0.5-0.2l-0.3-0.1c0.1,0,0.2,0.1,0.3,0.1l0.2,0.1l0.3,0.1
	C79.7,203.6,79.9,203.6,79.9,203.7z M80.7,204.5l0.2-1.1c0.1-0.3,0.1-0.5,0.2-0.7c0-0.1,0.1-0.2,0.1-0.3c0,0.1-0.1,0.2-0.1,0.3
	s-0.1,0.2-0.1,0.2l0,0l-0.1,0.5C80.8,203.8,80.7,204.3,80.7,204.5l0.1-0.7c0,0,0-0.1,0-0.2C80.8,203.9,80.7,204.2,80.7,204.5z
	 M107.5,257.9l0.4-0.3c0.1-0.9,1.2-2.1,1.9-2.7l-0.7-1.3l1.1-0.8l-0.9-0.8l1.3-1.1l1.1,1.4l1.6,0.4c-0.2-0.7-0.4-2.1-0.1-2.9
	l-1.4-0.4l-1,1c0.1-0.3,0.3-1.5,0.5-1.7l0.8-0.4l0.1-0.8l-1.1-1.7l0.5-1.9l-0.4-0.9l0.4-0.5l1.1,1.1l0.9-1.1c0.8,0.2,1.8,1,2.2,1.7
	c0.6-0.5,1.7-1.6,1.9-2.5c-0.7-0.4-1.7-1.3-2-2c-0.9-0.2-2.6-0.7-3.3-1.1l-1.3,0.4l-1.4-0.8l-2.5,0.4l-0.2,2.3l-1,0.8
	c-0.2,1.7,0.1,4.3-0.3,5.9l0.6,0.6l0.1,0.8l-1.2-0.8c-0.7,0.5-1.7,1.5-2.6,1.1c-0.5,0.4-0.9,1.6-1.1,2.2c0.7,0.7,1.4,2,1.5,3
	c0.4,0.4,1.5,1.5,1.9,1.9L107.5,257.9z M120.1,151.1c-0.4,0.5-1.2,1.6-1.5,2.2c0.1,1.8,0.5,4.2,1.9,5.5l1.6-0.7l1.3,0.5l0.5-1.3
	l-0.6-1.7l0.9-0.8l-0.6-1.7l1.8-0.7l0.2-1.3l-1-1.1l-1.2,1.6l-0.5-0.2l0.2-1.7l-1.7,1.5l-0.5-1.2L120.1,151.1z M150.5,175.8
	l-0.9-0.9c-1.2,0.5-3.1,1.3-3.5,2.6l-0.8-0.2l-1,1.3l0.2,0.5l1.7-0.3l0.5,0.2l1.5-0.3l1.1,0.7c0.3-0.5,1.1-2,1.6-2.4l-0.2-0.5
	l-0.7,0.1l-0.2-0.5L150.5,175.8z M93.3,157.3l1.9,1.4l2.2-0.4c0.3,0.4,1.7,2.8,2,3.1l-0.1,1.1c-0.3,0.3-1,0.9-1.4,1.2
	c-0.3-0.2-1-0.6-1.3-0.8l-1.4,0.1l-1.7-1.2l-0.8-2.6L93.3,157.3z M98.3,161.6c0.1,0,0.3,0,0.5-0.1L98.3,161.6z M148.3,328
	c-0.8-1.6-2.2-3.5-3.8-4.3l-1.7,2.3l0.1,2.3l1.1,1.5c0.8,0,2.9,0,3.7-0.2L148.3,328z M194.5,323.3l-0.4,0.8l0.3-0.6
	C194.4,323.4,194.5,323.3,194.5,323.3L194.5,323.3z M199.4,191.9l-0.5-0.2c-0.3,0.1-0.9,0.2-1.2,0.2l-0.3,0.7l0.3,1h0.1
	c0.2-0.2,0.7-0.6,1-0.8L199.4,191.9z M196,190.7c0.2-0.3,0.6-0.8,0.8-1.1c-0.2-0.3-0.8-1-1-1.3c-0.6,0.3-1.4,0.6-2,0.8
	c-0.2,0.2-0.7,0.7-1,1l-0.1,0.8c0.2,0.3,0.6,0.9,0.8,1.2c0.4,0,1.3,0.1,1.7,0.1C195.5,191.8,195.7,191,196,190.7z M198.8,187.3
	l-0.4-1c-0.5,0.5-1.4,1.1-1.9,1.6l0.5,0.5c0.3-0.1,1-0.3,1.3-0.4L198.8,187.3z M146.8,201.5l0.7,1.2l-0.4,0.9l1.7,1.5l0.5,0.1
	l-0.2-2.1l0.9-1.5c0.4-0.3,1.5-0.9,1.9-1.1c2-1.9,5.7-2.4,8.3-2.5l0.5-0.5v-0.9c-0.6-0.2-1.5,0-2,0.2c-1.1-0.6-4.2-0.1-5.4,0.1
	l-0.4,0.9l-2.2,0.7l0.3,0.5l-2,0.7l-0.7,0.9l-0.8-0.1L146.8,201.5z M210.6,171.9l0.7-0.1c0-0.4-0.1-1.3-0.2-1.7l-0.5-0.7l-0.3-0.1
	c-0.2,0.2-0.4,0.7-0.5,1C209.6,171.1,210.2,171.4,210.6,171.9z M200.3,338.5c2.7-0.5,8.6-1.7,11.2-2.3l0.1-0.2l-2.3-0.2l-1.9-0.8
	l-2.6-0.5l-2.9,0.5c-2.9-1.2-6.8-1.8-9.7-3.3l-6.2,0.4l0.4,0.7l3.1,1.4c1.1,0.2,3.1,0.9,3.9,1.7l2.8,0.6c0.7,0.4,1.8,1.5,2.3,2.1
	C198.7,338.9,199.9,338.6,200.3,338.5z M174,191c-0.2-0.5-0.7-1.2-1.1-1.6c-0.7,0.4-1.1,1.4-1.4,2l0.5,0.4c0.2,1.5,0.7,2.4,2.3,2.7
	l0.8-0.4c0-0.3-0.1-1-0.2-1.3C174.9,192.2,174.4,191.5,174,191z M152.2,178.6l0.2-0.7c-0.2-0.2-0.7-0.6-0.9-0.8l-0.8,0.7l0.1,0.5
	l-0.5,0.2c0,0.3,0.1,0.9,0.1,1.2c0.2,0.2,0.5,0.7,0.7,0.9c0.3,0,0.9,0,1.3,0c0.2-0.5,0.5-1.5,0.5-2L152.2,178.6z M101.4,186.7
	l0.9-0.6c-0.3-0.4-0.8-1.2-1-1.6l-0.8,0.3c-0.2,0.4-0.7,1.1-0.9,1.5C100.1,186.4,101,186.6,101.4,186.7z M175.2,196.1
	c0.6-0.4,1.6-0.9,2.2-1.3l-0.1-0.9c-0.5-0.2-1.1-0.9-1.6-1l-0.3,0.3c-0.1,0.6-0.1,1.5-0.2,2.2L175.2,196.1z M146.6,181.1
	c0.3,0.1,0.9,0.5,1.2,0.6l0.2-0.8l0.7-0.5l-0.7-0.7l-0.5,0.5l-0.7-0.1L146.6,181.1z M157.7,185.2l-0.8-0.2l0.5,0.5l-0.6,0.4
	l-0.1,0.6l0.5,0.1l0.3-0.2c0.2,0.1,0.6,0.2,0.8,0.2l0.4-0.2l-0.1-0.7c-0.3,0-0.7,0.2-1,0.3l0.4-0.5L157.7,185.2z M160.6,125.8
	c0.2-0.4-0.2-1.2-0.4-1.6l-0.9,0.4l-0.4,0.7c0,0.2,0.1,0.9,0.2,1.1l0.8,0.4l0.7-0.4L160.6,125.8L160.6,125.8z M173.4,138.7l-0.4,0.8
	c0,0.4,0.3,1.1,0.5,1.4l0.8-0.5l0.4-0.9C174.5,139.2,173.8,138.7,173.4,138.7z M172.8,144.8l-0.1,0.2l0.3,0.4l0.8,0.1V145l-0.9-0.2
	H172.8z M176.7,142.8l0.5,0.2c0-0.4,0.2-1.2,0.3-1.6l-0.9-0.1c0.1-0.3,0.2-0.9,0.2-1.1l-0.5-0.5l-1,0.1c-0.3,1.1-0.8,2.5-0.4,3.6
	l0.1-0.2l0.7,0.2L176.7,142.8z M191.4,141.8c0.4-0.4,1.5-1.2,2-1.6l-0.7-1.8l0.2-1l-2-0.1c-0.6,1.6-3.4,2-4.9,2.4l0.4,1.9
	c0.5,0.3,1.6,0.9,1.7,1.6l1.8,0.8l0.2-1.4L191.4,141.8z M177.4,147.4l-0.9-0.3c-0.2-0.4-0.7-1-1.2-1.1c0,0.5,0.1,1.5,0.1,1.9
	c0.4,0.5,1.1,1.1,1.6,1.4l0.2-0.8l-0.4-0.6L177.4,147.4z M185.4,143.5l-0.5-0.7l-2.3-0.8l1.4-0.4l0.2-0.7l-0.8-0.3
	c-1,0.4-2.6,0.3-3.5,0.1c-0.4,0.4-0.8,1.3-0.8,1.9l0.5,0.2l0.5-0.2c0,0.4-0.1,1.4-0.2,1.8l0.4,0.4l0.7-0.5v-2.1l0.8,0.4l0.4,1.5
	l1,1.3c0.5-0.2,1.4-1,1.7-1.3L185.4,143.5z M179,135.2c-0.4-0.6-1.5-2.1-1.6-2.8l-0.6-0.2l-1.2,0.7l-0.4,1.8l0.8,1l-0.7,0.9l0.1,0.7
	l1.1-0.1l0.6,0.5l0.9-0.8l-0.4-1.5l1.3,0.5L179,135.2z M180.9,138l0.2-0.2c-0.1-0.4-0.4-1.3-0.5-1.7c-0.2,0.3-0.7,0.9-0.9,1.2
	l0.3,0.5L180.9,138z M180.3,148.8l0.1-0.3l-0.7-0.2l-0.7,0.2c0.1,0.2,0.4,0.7,0.5,0.8L180.3,148.8z M175.3,127.4
	c0.4,0.9,0.9,1.8,1.7,2.4c0.3-0.4,0.9-1.1,1.4-1.4c-0.2-0.3-0.7-0.8-0.9-1.1l-0.6,0.2c-0.2-0.2-0.7-0.6-1-0.8L175.3,127.4z
	 M185.9,139.3l2.1-0.4c0.5-0.3,1.5-1.2,2-1.6l-0.8-1.1l-1-0.4h1.8l0.1-0.9c-0.5-0.3-1.8-0.8-2.3-1l-1.1-1c0.6-0.1,1.5,0.2,1.9,0.5
	l1.7,0.2l-0.1-1.9l-0.7-0.1l-0.7-1v-1.1c-0.4-0.1-2.8-0.6-3.3-0.7c-0.6,0.1-1.9,0.3-2.5,0.1c-0.6-0.5-1.8-1.2-2.5-1.5l-0.4,0.7
	l0.3,0.9l-1.2-0.1l-0.2,0.8c0.5,0.6,1.5,1.8,2,2.5c0,1.2-0.8,4.3,0.6,5l0.6-0.1l0.2-2.2l0.6-0.7c0,0.6-0.2,2.4,0.2,2.9l1-0.7
	l0.4,1.3h1.6l-0.7,0.8L185.9,139.3z M173.8,147.5c0.1,0.1,0.5,0.3,0.7,0.4c0.1-0.7,0.2-1.6-0.2-2.2l-0.7,0.4l-0.2,0.7L173.8,147.5z
	 M169.9,148l-0.5,0.7c0.5,0.3,0.8,1.4,0.9,2l1.1,0.8l0.4,1.1l0.7-0.1l-0.1-0.5l0.4-0.1c0.6-1,0.9-2.2,0.2-3.2h-0.7
	c0.6-0.6,0.4-1.6,0-2.2l-0.9-0.3l-0.7,0.2L169.9,148z M160.9,112.9l-0.5-0.1c-0.1,0.3-0.2,0.9-0.2,1.1l0.4,0.4l0.4-0.1
	c0-0.1,0.3-0.7,0.3-0.8L160.9,112.9z M148.2,128.3l1.3-0.5l1.9,1.2c0.9-0.3,2.8,0.2,3.6,0.4l-1,1.4c1.5,1.7,1.8,2.2,4.2,2.2l1.1,1
	l1.1-0.8l0.3,0.8c0.6,0.5,2,1.2,2.8,1.4l0.4-1l1.2-0.8l0.1,1.4l1.4,2l1.4-1l0.5-1.7l0.5,1.3l-0.4,1.4l1.6-0.6
	c1.1-1.2,1.2-3.4,0.8-4.9h-1l0.7-1l-0.6-0.7c-0.7-0.1-2.1-0.5-2.8-0.8c-0.9-0.1-3.2-0.2-4,0.4l-0.2,0.7l-0.7-0.5h-0.7l-1.1-1.1
	l0.4-0.6c-1.5-0.2-3.6-0.7-4.1-2.3c0.2-0.7,0.6-2.6,0.5-3.3l-0.5-0.6c0.8-0.4,2.5-1,3.4-1.2l0.3-1.6l-0.9-0.5l-2.6,1l0.2,0.5
	l-3.2-1.1l0.1-0.7c-1.8-1-4.7-1-6.7-0.7c0.5,0.9,3,1.9,3.8,2.5c-0.9-0.2-3.3-0.8-4.3-0.6l0.3,1.5c0.4,0.4,1.5,1.8,2,1.9
	c0.8,0.1,2.2,0.6,2.8,1.1l0.4,1.1l-1,0.7c-0.8-0.5-2.5-1.5-3.4-1.6C147.9,125.1,147.5,127.3,148.2,128.3z M163,115
	c0.3,0,1-0.1,1.4-0.1c0.1-0.3,0.4-0.8,0.6-1l-0.2-0.5l-0.7,0.1c-0.3,0.3-0.8,0.9-1,1.3v0.2H163z M126.7,127l-1,1.2l2,3.2l1.4,0.8
	c0,1.9,0.2,3.3,1.9,4.4l0.5,1.4c-0.3,0.8-0.6,2.4-1.1,3.1l0.1,2.3c0.4,0.7,1.5,2.5,1.4,3.3c-1.6,2.4-0.5,5.9,0.4,8.3
	c0.4-0.5,1.1-2,1.4-2.6l0.7,1.2l1.4,0.4l-2.4,0.4l-0.1,1.3c1.2,0.4,3,0.4,4-0.5l0.4,0.5l-1.3,0.8c0.5,0.5,1.8,0.3,2.5,0.2
	c-0.2,0.4-0.4,1.2-0.4,1.7l0.7,0.5l1-0.4l-0.3,1.3l1.9-0.1v0.6l1.7,0.5l1.4-0.5l0.4,1l-0.2,0.7c2.1-0.4,4.6,1.2,6.2,2.3l0.4-0.8v1.2
	c0.3,0.2,1.3,1.7,1.5,2h0.8l0.6-0.8c-0.1-0.7-0.4-2.1-0.7-2.7l1,0.8l0.8,0.1l-0.4-0.8l1-0.4l0.4-1l0.4,0.1l-0.9,2.5l0.5,0.8l2.2-0.8
	c0.4-0.5,1.4-1.7,1.6-2.3l-0.4-0.7l0.7-0.6c-0.1-0.6-0.3-1.8-0.8-2.2l-1.3-0.4c0.7,0.1,1.7-0.1,2.3,0.1l-0.1-1.4l0.7,0.4
	c0.7-0.4,1.4-1.3,1.7-2.1l-0.5-0.8c0.5-0.7,0.8-2.3,0.7-3.1l-1.2-0.3l-0.2-0.8c0.5-0.8,1.5-2.2,2.1-2.9l-0.2-0.8l-1.2-0.5l-2,0.2
	c0.6-0.2,1.4-1,1.7-1.5c-0.4-0.4-1.5-1.2-2-1.4c-0.8,0.5-2.4,1.3-3.3,1.7l-1.9-0.4l-0.4-0.8c-0.8,0-2.3-1.3-2.8-1.8
	c-0.4-0.3-1.5-1.1-2-1.3l-0.5-2l-0.7-0.1l-0.4,0.6l-2.6-0.5c0.4-0.1,1.7-0.5,2-0.8c-0.2-0.6-0.8-1.7-1.3-2.2h-1.1
	c-0.3,0.5-0.7,1.7-0.7,2.3c-0.4-0.5-1.1-1.7-1.2-2.3l0.5-1.3l-0.8-2.4l-0.8-0.2l-0.7-1.4l-2.2-0.8c-0.5-0.7-1.6-1.8-2.4-2.1
	l-2.9-0.9l-1.8-1.1l-1.5-0.2l-1.6,1.4L126.7,127z M163,117.3l0.2,0.9c0.5,0.3,2.5,1.1,2.8,1.6l0.4-0.4l0.2,0.9l0.7,0.1
	c0.1-0.8,0.2-2.7,0.2-3.5l0.8-1l-1.3,0.2l-0.5-1.1c-0.6,0.5-1.7,1.7-2.1,2.3l-0.6-0.8l-1.6-0.2l-0.8,0.8l0.8,0.5L163,117.3z
	 M105.8,166.2l0.2-0.9c-0.8-0.7-2.5-1.5-3.5-1.7l-1.1,0.5l-1.9-0.1l0.9,0.8l-0.6,0.4l-0.8-0.5l-0.5,0.2l-0.5,1.5l-1.3,0.8l-1.1-0.2
	c0-0.1,0.3-1.9,0.3-2l-1.3-0.4l-1.1,0.7l-0.5-1.5l-0.8,0.4l-0.5,2.2c0-1.1-1.6-2.8-2.2-3.5l-0.5,0.7l0.7,1.1l-0.3,1.3l0.8,1
	l-0.4,0.7c0.3,1.1,0.6,3.2,0.5,4.3l1,1.2l1-0.5l0.6,0.7l1.3,0.1l0.4-1.6l3.1-1.2l0.4-0.8l2.6-1.1l0.2-1.3c0.8,0.6,2.4,1.5,3.4,1.5
	c0.1-0.6,0-1.8-0.1-2.5l2.1,1.4L105.8,166.2z M180,147.8l0.7,0.1l0.5-0.5l-0.4-0.9l-1,0.3l-0.4,0.5L180,147.8z M173.6,137.8
	c1.5-0.9,1.1-2.8,1-4.3l-0.8-0.1c-0.2,0.4-0.6,1.1-0.8,1.5l-0.8,0.4c-0.3,0.5-0.6,1.3-0.9,1.8c0.5,0.3,1.1,0.6,1.7,0.7L173.6,137.8z
	 M186.9,146.5l-0.4-0.8c-0.9-0.3-1.8,0.4-2.6,0.1c-0.7,0.3-1.1,1.2-1.4,1.9h0.7l0.6,0.4c0.4-0.2,1.1-0.5,1.5-0.7
	C185.7,147.1,186.5,146.7,186.9,146.5z"/>
<path class="st1" d="M0.9,171l170.1,0 M6.8,215L171,171 M23.7,256L171,171 M50.7,291.3L171,171 M85.9,318.3L171,171 M127,335.3
	L171,171 M171,341.1l0-170.1 M215,335.3L171,171 M256,318.3L171,171 M291.3,291.3L171,171 M318.3,256L171,171 M335.3,215L171,171
	 M341.1,171l-170,0 M335.3,127L171,171 M318.3,85.9L171,171 M291.3,50.7L171,171 M256,23.7L171,171 M215,6.8L171,171 M171,0.9
	l0,170.1 M127,6.8L171,171 M85.9,23.7L171,171 M50.7,50.7L171,171 M23.7,85.9L171,171 M6.8,127L171,171 M0.9,171
	c-0.3,66,39.5,127.7,99.6,154.8c111.1,50,236.8-28.3,240.5-150.1c3-116.8-109.3-201.6-220.8-167C49.7,30.5,0.6,97.3,0.9,171L0.9,171
	L0.9,171z M24.4,171c-0.2,60.9,38.9,116.8,96.1,137.6c95.7,34.7,196.7-35.7,197-137.6C317.2,68.1,214.4-2.5,118.2,34.3
	C62.2,55.7,24.2,111,24.4,171z M50.6,171c-0.3,50,32.3,96.5,79.4,113.2c77.8,28,160-28.5,161.5-111.2
	c1.2-84.4-82.1-143.8-161.6-115.2C82.8,74.5,50.2,121,50.6,171L50.6,171z M78.7,171c-0.2,41,28.2,78.3,67.8,89
	c60.3,16.4,119.2-30.4,116.8-92.8c-2.9-64.6-69.3-106.4-128.8-80.9C101.1,100.3,78.5,134.8,78.7,171z M108.5,171
	c-0.1,29.1,21.1,55.4,49.7,61.1c38.3,8.1,74.8-21.2,75.3-60.3c0.6-41.3-38.8-72-78.7-61.2C127.9,117.6,108.3,143.3,108.5,171z
	 M139.5,171c0,21.9,22.1,37.2,42.6,29.5c26.4-10.2,27.4-46.8,1.6-58.4C162.9,133.1,139.5,148.3,139.5,171z"/>
</svg>
