<?xml version="1.0" encoding="utf-8"?>
<!-- Generator: Adobe Illustrator 27.0.0, SVG Export Plug-In . SVG Version: 6.00 Build 0)  -->
<svg version="1.1" id="Layer_1" xmlns="http://www.w3.org/2000/svg" xmlns:xlink="http://www.w3.org/1999/xlink" x="0px" y="0px"
	 viewBox="0 0 342 342" style="enable-background:new 0 0 342 342;" xml:space="preserve">
<style type="text/css">
	.st0{fill:#59441E;}
	.st1{fill:none;stroke:#59441E;stroke-miterlimit:10;}
</style>
<path class="st0" d="M27.7,173.4l-0.2-0.8l-0.2-0.8l-0.2-0.8l-0.1-0.2l-0.8-0.3l0.1,0.5l0.2,0.7l0.3,0.7l0.1,0.8l0.4,1.2l0.6-0.3
	L27.7,173.4z M30,176.8l0.1-0.7l-0.1-0.7l-0.2-0.8l-0.4-0.2l-0.5-0.2l-0.4,0.8l0.3,0.6l-0.2,1.1l0.6,1l0.7-0.3L30,176.8z
	 M25.7,250.3l-0.1-0.9l-0.1-0.8l-0.1-0.7l-0.1-0.7l0.2-0.9l0.3-0.4l0.2-0.5l-0.7-0.6l-0.6,0.7l0.1,1.2v0.7v0.7l0.2,1.3l0.2,1
	l0.2,0.8l0.2,0.8l0.7,0.5l-0.3-1L25.7,250.3z M32.4,252l-0.7-1.3l-1.1-1.1l-1-1.1l-0.6-0.2l-0.8-1.3l-1.3-0.4l-0.8,0.3l0.1,0.7
	l0.8,1.5l0.7-0.7l1.3,1.1l0.8,0.4l0.9,1.4l-0.6,0.6l0.2,0.4h0.9l0.8,1.3l1.1,2.3l0.5-0.1L32.4,252z M25.3,239.8l0.2-0.8l0.2-0.7
	l0.1-0.7v-0.7l-0.5-0.7l-0.5-0.2v0.7l0.1,0.7l-0.2,0.8l-0.1,0.8v0.9l-0.2,0.5l0.3,0.3l0.4-0.5L25.3,239.8z M59.2,296l-0.3-1.4
	l-3.1-2.9l0.1-0.4l1.5,1.4l2.6,1.7l-1.1-2l0.4-0.5l-0.1-0.8l-0.9-0.7l-1.1-0.1l-2.1-4l-1.6-1.7l-2.8-4.9l0.1-1.9l0.8-1.7l1.4,1h1.7
	l-2.3-2.6l-0.8-0.2L50,272l-0.5-2.7l-1.7-2.3l-0.7-1.4l-1.7-1.4l-0.7,1l-1.4-1.1l-1.7-1.6l-1.4-3.4l0.4-2l-0.4-4.1l-2.2-4.5l0.1-0.8
	l-1-1.5l-0.5-0.1l0.8,2.9l-0.7-0.6l0.8,2l-0.7,0.2l0.8,1.3l-0.5,2.4l0.5,2.6l-0.5,1.1l-1.6-2.1l-0.3,1l1.7,4.4l-0.5,0.9l0.2,1.7
	l0.5,2l4.7,9.4l1.7,2.6l2.3,4.2l1.7,1.9l2.9,1.9l2.8,0.6l1.5,2.8l-1.1,2.3l-0.1,0.7l3.1,3.7l1.4,0.7l3.2,2.3l-0.5-1.4L59.2,296z
	 M59.7,285.4l-0.9-0.1l-0.9-0.1l-0.5,0.5l0.1,0.8h0.8l0.8-0.1l0.3-0.5L59.7,285.4z M114.7,329.4l-1.3-0.9l0.3-2l-2.2-1l-1.8-0.6
	l-0.7-1.1l-3.4-0.8l-1.1-1l-1.8-0.9l-0.7-1.3l-3.2-0.8l-0.1-0.7l-2,1.6l-0.7,1.3l-3-0.4l-0.5,1.1l2.8,1.4l5.7,2.7l6.2,2.7l8.3,3.1
	v-0.7L114.7,329.4z M69.6,301.2l-0.7-0.7l-0.8-0.7l-0.7-0.5l-0.7-0.4l-0.9-0.8l-0.9-0.8l-0.5-0.7L64,296l-0.5-0.7l0.1,0.8v0.8
	l0.7,0.8l0.7,0.8l0.7,0.8l0.9,0.7l1,0.7l1,0.7l0.5-0.1L69.6,301.2z M73,304.2l0.8,0.5l-0.1-0.8l-0.7-0.7l-0.7-0.7l-1.2-0.2l0.3,0.8
	l0.8,0.5L73,304.2z M67,304.5l-0.2-0.7l-0.7-0.4l0.2,0.7l0.2,0.7l-0.4,0.2l0.5,0.4l0.5,0.4l0.1-0.4L67,304.5z M89.7,316.7l1.5-0.3
	l-0.3-1.3l-1-0.6l0.4-1.5l1.4-0.8l-0.8-1l-1.7-0.7L89,311l-1.4,3.1l-1.9-0.6l0.9-1.1l-1.3-1.9l0.6-0.3l-0.4-0.7l-2.7-1l1.9-0.3
	l-0.7-1.1l-1.5-0.4l-0.6,0.8l1.2,2.9l-0.7,0.1l1.3,3.1l-2.5-0.8h-1.5l-1-0.8l-0.6,0.4l4.9,2.5l1.7,0.2l1.6,2.5l-0.7,0.5l1,0.5
	l2.2-1.1L89.7,316.7z M92.4,304.8l0.5,0.6l0.5,0.5l0.8,0.4l0.8,0.3l0.8,0.3l-0.6-0.7l-0.7-0.7l-0.7-0.7l-0.6-0.7l-1-0.6l-0.4,0.3
	L92.4,304.8z M92.9,306.7l-3.1-2l-3.7-1.8l-0.8,0.5l2.4,0.8l1.6,0.9l1.2,1.3l2,0.8L92.9,306.7z M95.8,309.2l0.7,0.4l0.7,0.8l0.9-0.2
	l0.7,0.4l0.7,0.3l0.7-0.2l0.6-0.2l-1.3-0.7l-0.8-0.4l-0.9-0.4l-1-0.4l-1-0.4l-1-0.4l0.3,0.9L95.8,309.2z M105.4,315l3.7,2l0.5,1.3
	l4.6,2.6l0.8-0.4l5,1.9l0.2,0.7l1.1,0.5l2,1.3l3.2,1.1l2.3-0.9l-2.5-0.8l-0.2-0.8l-4.6-2.1l-1.2-0.2l-1.9-0.8l-3.5-2l-4.1-2
	l-2.3-0.9l-2.5-1.9l-3.1-0.8l0.7,0.6L105.4,315z M141.2,337.5l-1.3-1.9l-1.7-2l-1.9-1.7l-1-1.1l-3.2-2l-2-1.9l-3-0.8l-0.7,2.3
	l-1.3,1.6l1.1,1.3l2,0.7l0.8,1.1l0.2,1.1l1,0.3l1.5,0.9l-1.3,0.8l5.8,1.3l6.8,1.3L141.2,337.5z M200.4,103.5l-1.1-1.7l-0.2-2.7
	l-0.8-0.5l-1.4,0.3l-0.8,1.1l-1,0.7l-1.4-1.2l-1.4-1.9l-0.9-0.7l0.8,2l0.7,1.4l1.7,2.3l1.1,0.7l0.7,0.8l1.1,0.7l1.3-0.2l0.7-0.6
	l0.4,1l1.1,0.4l1-0.7L200.4,103.5z M192.6,97.2l-0.8-1.1l-0.5-0.5l-0.1-1.3l0.7-1l-0.4-1.5l0.7-3.3l1.1-1.6l1.9-1l-2.1-1.2l1.9-1.3
	l1.4-2.9l1.6,1.1l1.7-3l0.4-0.5l-1-0.8l-1.2,2.2L197,79l0.9-1.9l0.7-1.3l1.2-2.6l1.2-1v-1.9l0.5-2l0.8,0.2l2-2.6l2.2-2.4l1.6-2.3
	l0.4-2.8l1.1-1.2l0.5-2.2l1.9-1.7l1.8-3.7l2.9-4.9l0.7-1.1l0.8-2.7l0.4-2.5l-2-1.7V36l-3.5-2.6l-2-1.5l-3.1-2.5l-1.1-1l-0.7-1.6
	l0.5-0.4l-2.3-3.7l-1.9-3.5l-1.3-2.4l-1-1l-0.7-1.3l-2-1.4l-1.9-1l1-0.5l-1.1-1.7l0.9-0.9l2.4-0.6l1.7-0.8L200,6.8l-1.2,0.5l-1.6-1
	l0.6-0.3l-0.3-1.4l1.1-0.1l0.7-0.8l0.6-0.4l6.2,1.2l7.1,1.6l6.3,1.7l6.2,2l3.5,1.3l4.7,1.7l5.7,2.4l8,3.8l3.5,1.8l5.4,3l4.3,2.6
	l4.7,3l0.9,0.7l5.5,3.8l5.3,4.1l1.3,1.1l0.9,0.7l0.1,0.2l3.8,3.6l-0.9,1.2l2.3,0.8l2.3,2.9l2.9,4.1l0.4,1.6l-0.9,0.2l2.7,2.1
	l3.2,4.7l2.9,3.2l1.7,4.1l0.8,3.9l1,2l1.4,2l0.2,1.1l-1,1.9l-0.5,0.9l-2.8,0.6l-1.7-0.5l-4-1.7l-2.5-0.2l-2.3-0.7l-0.4-0.5l-1.4,0.2
	l-2.3,2.1l-3.5,1.6l-1-0.2l-2,1.1l-3.3-0.4l-1.6,0.9l-1.8-1l-1.1,0.3l-1.7-1.9l-3.3-2l-1.7-0.6l-2.2-1.4l-2.9-0.8l-2.6,0.1l-1.1,0.8
	l-0.4,1l-1.5,1.1l-1,0.4l-1.7-0.4l-3.8,1h-2.3l-1.6-0.2l-1.8,0.8l-1.7,0.1l-1.4,0.4l-2.4-0.5l-1-1.1l-1-0.5l-1-1.6l-1.2-0.7
	l-0.5-1.5l0.8-1l-1.4,1.7l1.3,2.7l-0.5,0.4l-0.4,0.5l0.5,1.3l-0.6,0.7l-2.8,1.1l-2.8-0.5l-3.4-1.5l-1.7-1.1l-0.2,1.1l-1,1.1l-0.2,1
	l-1.3,0.1l-1.7-0.5l-1.2-1.4l-0.8,0.2l-0.6,1.8l0.8,1l1.1-0.1v1.1l-1.7-0.1l-1.7,0.5l-1.1,1.7l-0.4,0.4l-0.4,0.4l-1.4-0.6l-1.5,0.4
	l-1,1.2l0.8,1.9l1.2,1l-1.2,1.4l-2,0.3l-1.2,1.1l-0.5,0.6l-1.6,0.2l-0.8,0.7l-0.3,2.1l0.4,1.4l-1.6-1l1,0.7l-1.1-0.4l-1.5,0.4
	l-0.7,0.1l-0.8,1.7l-0.5-0.1l-1.2-1.1L192.6,97.2z M209.7,101.8l-0.7,0.1l0.1,0.5l0.1,0.6l0.7-0.1l0.7-0.1l0.2,0.9l0.9,0.2l1,0.2
	l0.7-0.4l-0.2-0.7l-0.2-0.7l-0.5,0.1l-0.5,0.1l-0.4-0.5l-0.4-0.5l-0.7,0.1L209.7,101.8z M201.6,250.1l-0.1-0.8l-0.4-1l-0.7,0.3
	l-0.7,0.3l-0.7,0.3l-0.1,1l0.2,0.3l0.7-0.1l0.7-0.1l1.1,0.2V250.1z M77.2,297.2l0.8,0.5l0.8,0.5l1.1,0.5l1,0.5l0.5-0.1l0.9,0.4
	l0.8,0.4l0.8,0.3l0.8-0.1l0.7-0.1l0.5-0.3l-0.2-0.4l-1.1-0.5l-1-0.5h-0.7h-0.7l-0.7-0.1l-1-0.5l-1.1-0.5l-0.9-0.4l-0.9-0.4l-0.9-0.4
	l-1.1-0.3l0.7,0.8L77.2,297.2z M310.7,200h1.1l1.4,0.7l1.3,1.1l0.7,0.3l1.3,1.1l0.5,0.8l0.7,1.7l0.5,1l1.1,0.6l0.9,0.1l0.8-0.7
	l2.2-0.9l0.3,0.2l0.4,1l2.8-0.8l1.3-1.2l0.2,0.4l0.6-0.3l0.6-0.2l0.7-0.2l0.5-0.5l0.5-0.5l1.1-1l2-2.6l1.6-1.7l1.8-1.5l0.4,0.1
	l0.4,0.7l0.6,0.5l-1.6,8.3l-1.2,5.3l-2,7.3l-1.1,3.6l-1.9,5.5l-2.2,5.9l-2.3,5.4l-2.5,5.3l-2.8,5.7l-1.3,2.3l-0.5,0.9l-1,1.9
	l-0.9,1.5l-3.1,5.1l-2.3,3.6l-3,4.4l-4.4,5.9l-3.7,4.5l-1.7,2l-3.2,3.7l-0.5,0.5l0.7-2.7l-0.1-1l0.2-0.8l0.9-1.9l-0.1-1l0.7-0.9
	l-0.5-1l0.1-1.1l-0.4-1.1l0.3-1.2l-0.7-2.2l-0.8-0.4l-1.6,1l-0.4-0.2l-0.2-1.2l-0.5-0.2l-0.5-0.6l-1.4,0.1l-1.9-0.2l-0.9,0.5
	l-0.8-0.1l-1.1-1.1l-1.3-0.7l-2-1.6l-1-0.2l-0.5-2.1l-0.1-0.7l0.2-1.9l2-4.9l0.2-3.4l0.3-1v-2l0.2-1.1l-0.9-0.8l-1.7,0.2l-1.1-0.2
	l-0.4-0.3l-0.2,0.4l-1.3-1l-0.5-0.8l-0.5,0.2l-0.4-0.7l0.1-1.1l1.1-3.7l0.2-1V240l-0.7-0.2l-0.4,0.4l-0.7-0.7l0,0l-0.8-1.1l-1.1-1
	l-0.4-0.9v-2.2l-0.3-1.3l-0.5-1l-0.5-1.7l-0.8-4.7v-1.7l0.3-2.2l0.4-1l-0.4-0.4l0.8-1l0.1-1l1.2-1.8l0.3-1.2l0.4-0.7l0.1-2.2
	l0.4-1.7l-0.2-1.4l0.2-0.8l0.9-0.5l0.2-0.6l1.1-0.5l-0.2-0.2l0.5-0.1l1,0.4l1.4-0.2l0.1,0.7l1.4,0.4l2-0.8l4.4-1.3l1.7-1.2l1.5-0.5
	h1.8l2.1-0.2h2.1l2,0.5l1-0.1l0.9-0.7l1.7-0.9l3.4-1l2-1.6L310.7,200 M263.7,283l0.3,0.8l1,0.2l1.6,1.2l1.2,0.4l1,0.1l1.1-0.1
	l0.2-1.1l-0.7-0.8l0.4-1.8l1-0.6L270,281l0.1-1.1l0.8-2.2l0.4-1.7l0.8-0.8l0.4-0.9l0.8-1.2l0.8-1l-0.5-1l-0.1-1.3l-1.3-0.9l-0.5-0.2
	l-1.5-0.4l-0.7-0.9l-0.1-1.7l-0.4-0.4l0.5-1l-0.6-1.2l-1.1-0.7l-1.6-0.4l-1.2-1l-1,0l-2.9,1.4l-0.8,1.9l-1.1,1.6l0.4,1.4l1,2.5
	l1,2.9l1.6,5.8l0.8,1.2l-0.3,0.7l0.3,0.7l1.1,0.6v0.7l-1.3-0.2v0.8H263.7z M30,203.1l0.2-0.5l0.3-0.5l-0.4-0.8l-0.3,0.9l-0.3,0.9
	L30,203.1z M29.1,204.7l0.4-0.5l-0.2-0.5V203l-0.6,0.4l-0.6,0.4l-0.1,0.7l-0.1,0.7l0.6-0.2L29.1,204.7z M39.6,206.6l0.7-2.6l0.3-2.3
	L40,201l-1.1,3.5l-0.5,2l-0.2,1.4l0.3,1l0.4-0.5L39.6,206.6z M25.1,219.8l0.3-0.7l-0.3-0.9l-0.3-0.8l-0.3,0.8l0.1,0.5l0.1,0.8
	l0.1,0.8L25.1,219.8z M23.3,222.5l0.2-0.8l0.2-0.8l0.2-0.8l-0.4-0.3l-0.2,0.7l-0.2,0.7l-0.4,0.7l-0.5,0.7l0.3,0.9l0.4-0.4
	L23.3,222.5z M25.5,225v-0.6l-0.2-0.8l-0.2-0.8l-0.4-1l-0.2,0.6v0.9l0.2,0.9l0.2,0.9L25.5,225z M23.7,228v-0.8l-0.1-1.1l-0.1-1.1
	l-0.2,0.2l-0.2,0.8v0.8l0.1,0.8l0.1,0.8l0.1,1.3l0.3,0.4l0.1-1.1L23.7,228L23.7,228z M24.6,233.4l-0.2-1.3l-0.2-0.5l-0.1,1.3v0.9
	l0.1,0.9h0.2l0.1-0.7L24.6,233.4z M62.4,182.7l0.7-1h0.4l1.2-0.9l1.2-0.2l1.4,0.2l0.8,1.2h0.7l0.5-2l1-0.7l1.6,0.8l0.2-0.7l0.5-0.4
	l-0.9-1.3l-2.4-1.4l-0.4-0.2l-0.8,0.2l-0.5-0.4l-0.1-1.4l-1.1-0.5l-1.7-0.4l-0.2,1l0.8,1l-0.1,1.3l-0.5,1.6l-1.4,0.4l-0.5,0.9
	l1.3-0.1l-1.9,1.5l-1.6,0.7l-0.3,1.6l-0.9,1.2l0.2,0.7l1.2-1L62.4,182.7z M83.3,190l0.4-1.1l-0.2-1.4l-0.7-0.7l-1.1-1l-0.7-0.2
	l-2.7-0.6l-0.9-1.3l-0.2-1.3l-0.8,0.7l-0.9-0.7l-2.5-1.5l-0.8,0.1l-0.8,0.5l0.9,1.1l-1.5,1l1.1,1.1l1.1,0.1l0.5,0.5l1.6,0.5l1.1,0.8
	l0.6,0.7l0.7,0.6l0.9,1l0.6,1l2.3,1.6l1.6,0.5l0.6-0.4L83.3,190z M85.8,223.7l0.4,1l1.8,1.6l0.4,1.8l0.5,1l0.8-0.5l0.8-1.7l0.4-0.5
	l0.5-0.4l0.8-1.8l-0.5-0.9l-0.1-0.4l-1.8-0.2l0.2-0.8l-1.4,0.7l-0.8-0.2L85.8,223.7z M53.8,245.7l0.7,2.7l-0.5,1.3l-0.9,0.3
	l-0.8,1.3l0.2,0.7l-1.4,2l-0.7,0.2l0.2,1.4l-0.1,1.1l1.5,1l-0.5,1.5l-0.5,0.3l-0.7,0.7l-0.1,1.3l-0.5,0.5l0.2,0.7l-0.7,0.8l-0.2,1.1
	l1.1,0.4l0.4-0.2l1-0.2h1.1l0.2-0.7l0.5,0.2l1.2-0.5l0.5-0.8l0.5-0.2l0.4-0.8l1.5-0.2l0.9-0.4l0.9-0.1l1-0.2l1.5,0.9l1.1,2.2
	l-0.1,0.7l0.5,1.3l0.5,0.5l0.1,0.7l0.8,2.7l1,1.8l0.8,2l-0.2,0.5l-2.3-0.1l-0.2,0.7l-0.7-0.6l-1.1-0.2l-1.1,0.1l0.2,1.4l0.7,0.2
	l0.6,0.8l1.4,0.7l0.8,1.6l0.7,0.4l1.3,1.8l0.6,1.4l1,1.5l1.2,0.8l-1.1-1.7l0.5-0.7l1.9,1.3l0.8,1l1.6,0.7h1.4v-0.5l1.1,0.4l1.8-0.2
	l0.2-1.1l1.1,1.2l1.3,1l0.5,1.7l1.1,1.7l2.2,1.1l0.2-0.3l0.8,0.8l0.3-0.3l1.2,0.5l0.9-0.2l1.6,0.1l1-0.8l0.7,0.9l1.1-0.2l-0.3-1.1
	l1.1,0.3l0.1,1.8l2.3-0.2l0.2-0.4l0.7-0.8h1.7l1-0.4h1.6l2.4,0.8l1.1,0.7l0.7,0.2l0.5-0.2l1.4,0.5l2,0.3l0.5,0.5l1,0.4l1.9,0.2
	l1.4-0.2l2,0.3l1.4-0.7l-0.4,1.3l1.4-0.8l0.2-1l0.7-0.7l0.6-0.2l0.6-0.8l-0.2-0.7v-0.6l-0.5-1.7l0.4-0.9l0.3,0.9l0.8,1l-0.1-1.8
	l0.6,1.1l0.1-0.8l-0.6-1.8l0.3-1.4l-0.5-1l0.2-0.5l-0.3-1.4l0.5-0.9l0.1-1.1l-0.2-2.1l0.3-1.1l0.8-1l0.2-0.7l0.5-0.2l1,0.2l0.5-0.9
	l-0.8-0.8l-1.3-2l-0.6-0.3l-1.8-1l-2.2,0.1l-0.4-0.4l-1.6,0.3L112,268l-1.3-1.2l-1.1-0.5l-1.4-0.9l-1,0.2l-0.9,0.5l-1.7-0.6
	l-2.3-0.5l-1.5-1.3l-4.7-2.1l-2.9-2.3l-0.9-2l-1-1l-1.1-2.6h0.5l-0.3-1.3l0.1-1.8l0.7-0.7l-0.5-1.6l-1.6,0.5l-1.3-0.5l-2.3-0.1l1-1
	l1.1-0.1l1-0.5l1.4,0.1l-1.4-1l-1.6,0.1l0.7-1.3l1.1-0.1l-1.1-1.5v-1.3l0.4-0.9l0.8-1.2l0.1-1.7l-0.7-1.7l-0.5-0.9l-0.4-1l-0.5-1.6
	l-2-0.5l-0.8-0.6l1-0.4l-0.4-1.1l-0.2-1.7l-0.7-0.2l-1.7-0.5l-1.6-1l-1.1-1.7l-1.1-0.6l-0.5,0.4l-1.3,0.4l-1.4,0.3l-1.1-0.2
	l-1.7,0.3l-0.6-0.1l-2.2-0.1l-1.5-0.9h-1.9l-1.4,0.2l-0.9,0.5l-2.6,0.3l-1.5,0.6l-0.9,1.6l-1.1,0.4l-0.8,0.5l-1,1.2l-0.3,1.5
	l-0.4,3.9l-1.4,1.3l0.5,0.4l-0.2,1.2l0.8,0.7l-1.1,1.7l-0.2,1.7h-0.5L53.8,245.7z M185.5,153.5l-1.4,0.9h-1l-0.5,0.7l-0.1,0.8
	l0.5,0.6l1.6,0.2l1.6-0.1l0.8-0.7l1.4-1.7l0.2-1l-0.1-0.8l-0.8-0.1l-0.1-0.1l-1.5,0.8L185.5,153.5z M180.6,153.2l-0.6-0.5l-0.7-0.4
	l-0.1,0.6l-0.1,0.1l0.1,0.8l0.7,0.2l0.5,0.6l0.5-0.8l0.7-0.9l0.1-0.9l-0.5,0.5L180.6,153.2z M180.8,134.7l0.4,0.7l1.6-0.1l-0.5,0.7
	l0.8,0.3l1.6-0.1l0.9-1.4l0.2-0.9l0.2-1.9v-1l0.1-0.8l-0.1-0.9l-0.8,0.1l-0.7,0.8l-0.8,2.3l-0.5,1l-0.7-0.3l-0.5,0.1l-0.9,0.6
	L180.8,134.7z M165.8,134.6l0.8-0.2l0.5,0.1l-0.3-0.6l-0.2-0.5l-0.7,0.3l-0.8-0.2h-1l-0.9-0.1l-0.4,0.5l0.5,0.8l0.7,0.2l0.8-0.2
	L165.8,134.6z M154.4,141.4l-0.1-0.8l-0.5,0.7l-0.8,0.1l-0.8,0.1l0.2,0.7l0.9,0.3l0.8-0.3L154.4,141.4z M151.7,143.1l0.4-0.1
	l-0.7-0.1l-0.6-0.1H150l-0.1,0.6l1-0.1L151.7,143.1z M148.7,164.2h0.8l0.8-0.2v-0.8l-0.9-0.2l-0.8,0.1l-0.7,0.2l-0.6,0.7l0.7,0.4
	L148.7,164.2L148.7,164.2L148.7,164.2z M152.5,217.4l1.7-0.7l1.9,0.1l1.5,0.5l1.1,2.4l0.5,0.7l0.5,0.4l1.4-1.3l0.7-0.4l0.5-0.6
	l0.7-0.5l0.8,0.4l0.8-0.2l0.9,0.1l0.8-0.2l0.6,0.5l0.7,0.2l0.5-0.2l1.6,0.3l0.8-0.2l0.8,0.2l0.7,0.4l0.4,1l0.4,0.6l0.4-1.4l0.6-0.6
	l0.9,0.1l0.8-0.4l0.8-0.2l0.8,0.1l1-0.8l0.3-0.8l1.3-1.1l0.4-0.9l0.2-1.6l0.7-0.5l0.7-0.4l0.8-0.3l0.4-0.4l0.1-1.8V209l0.1-0.8
	l0.1-1.7l0.6-0.6l0.8-0.1l0.7,0.4v1.7l0.2,0.8l0.7-0.4l0.4,0.7l-0.2,1l-0.5,0.7l0.4,1.4l1.4,1.7l0.8-0.3l2.4-0.4l0.9,0.1l0.2-1.1
	l0.4-0.7l0.8-0.3l1.6,0.4l1-0.3l0.7,0.2l1,0.2l0.5,0.7l0.9,0.1l1.5-0.7l0.5-0.6l0.5-0.8l0.3-0.8l0.2-0.9l-0.3-0.7l0.2-0.8l0.6-0.5
	l0.1-1.9l0.7-0.3l0.4-2.3l0.7-1.7l0.2-1.8l-0.5-0.8l0.1-0.9l0.7-0.1l0.9,0.1l0.4-0.8l0.8-0.2l0.8,0.2l0.7-0.5l-0.4-0.8l-0.7-1
	l-0.2-0.8l0.2-0.7l0.1-0.8l-0.2-0.8l0.2-1.6l0.7-1.5l0.2-0.8V186l0.7-0.2l0.8-0.1l0.9-1.4l0.3-0.7l0.2-0.8V182l-0.6-0.8l0.8-0.1
	l0.3-0.9l-0.4-0.8l-0.7-0.5l-0.2-0.9l1.9-0.6l-0.2-0.8l0.6-0.5l-0.7-0.5l-0.7-1.4l-0.4-0.8l-0.5-1.6l-0.4-0.7l-0.7-0.8l0.8-0.3
	l0.1-0.8l-0.3-0.8l-0.4-0.8l0.1-0.8l0.8-0.2l0.1-0.8l-0.9-0.2l-0.7,0.1l-0.1-0.8l0.7-0.5l-0.1-0.8l-0.7-0.4l-1-0.1l-0.9-0.3
	l-0.8-0.5l-1.2-1l-0.7-0.2l-0.9,0.1l-0.3,0.7l-0.8,0.1l-0.7-0.4l-0.8-0.2l-0.9-0.5l-1.9-1.2l-0.6-0.6l-0.4-0.7l-1.5-1.1h-1l-1.6-0.3
	l-1.6-0.6l-0.5,0.1l-1.3,0.8l-0.6,0.5l0.4,0.6l0.7,0.5l0.5,0.6l-0.7,0.4l-0.6,0.5l-0.5,0.6l-0.8-0.2l-1.3-0.9l-1.5-0.5l-0.5-0.5
	l-0.7,0.1l-0.8,0.5l-0.1-0.8l-0.4-0.7l-0.6-0.5l-1.6,0.2l-1.5,0.5l-0.7,0.4l0.6-1.7l-0.3-1.7l-0.4-0.8l-0.6-0.6l-0.5-1.6l-0.4-0.7
	l-0.7-0.5l-0.2-0.9l0.1-0.8l-0.3-0.8l0.4-1.6l0.7-0.4l0.7,0.4l0.7-0.5l-0.1-0.8l-0.4-0.7l-0.6-0.5l0.1-0.8l0.8,0.2h0.8l0.8,0.4
	l0.8,0.2l0.7-0.7l2.3-0.4l1.1-0.4l1.1-1l0.8,0.1l1.3-1.1l0.6-0.9l0.2-0.8l0.4-0.7l0.2-0.8l0.8-1.7l0.2-1.5l0.5-2.5l-0.2-0.8
	l-0.4-0.7l-0.1-0.8l0.1-0.9l0.4-0.6l0.8-0.6l1.4-0.8l0.8,0.2l0.8-0.1l-0.1-0.8l0.3-0.7l0.5-0.7l0.7-0.4l1.7-0.2l0.8,0.2l0.4,0.6
	l0.5-0.2h1.1l0.7-0.4l-0.2-0.8l-0.8-0.2l-0.8,0.3l-0.8,0.1l-0.8-0.2l-0.8,0.1l-0.8,0.3l-0.8-0.3l-0.8,0.2l-0.7,0.3l-0.7,0.7
	l-1.7,0.5l-1.4,0.9l-0.8,0.7l-0.4,1.7l-0.4,0.7l-1.2,1.3l-0.4,0.7l-0.2,0.8l-0.4,3.2l-0.2,0.8l-0.5,0.8l-0.6,0.4l-0.8,0.2l-2.5-0.1
	l-0.7,0.4l-0.7,0.2h-0.8l-0.2-0.7l-0.5-0.6l-0.8,0.1l-0.5-1l-0.4,0.7l-0.5,0.7l-0.7-0.5l-0.7-0.3l-0.8-0.2l-0.4-0.8l-0.8,0.2
	l-0.7-0.4l-0.5-1l-0.5,1.6l-0.8,0.2l-0.6-0.5l-0.8,0.3l-0.8,0.5l-0.8,0.4l-0.8-0.1l-0.4-0.7l-0.7-0.5l-0.8-0.2l-0.8,0.2l-0.8,0.1
	l-0.5-0.1l0.8,2.2l0.5,0.7h0.8l0.4,0.7l0.5,0.6l-0.1,1l-1.6-0.4l-0.8,0.1l-0.5,0.5l-0.7,0.4l-0.8-0.4h-0.8l-0.9-0.5l-0.4,0.8
	l-0.6-0.5l-0.5-0.6l-0.6-0.4l-0.2,0.9l-0.5,0.7l-0.8-0.1l-0.5,0.7l-0.2,0.8l-0.6,0.5l-1.4,0.8l-0.6,0.5l-1.6,0.6l-0.4,0.7l-0.5,0.5
	l-0.8,0.2l-0.4,0.8l-0.8,0.4l-0.4,2.5l-0.3,0.7l-0.5,0.6l0.1,0.8l-0.2,0.9l-0.8-0.1l-0.1,0.8l0.5,0.5l0.7,0.2l0.7,0.4l-0.2,0.8
	l0.3,0.8l0.3,1.6l-0.2,0.7l-1-0.1l-0.2,1.6l-1.1,0.3l2.3,0.8l0.8-0.1l0.8-0.2l0.8,0.1l0.5-0.7l0.5-0.5l0.5-0.7l1.6-0.2l0.8,0.4
	l0.4,0.6l0.4,0.9l0.2,0.8l-0.8,0.1l-0.1,0.8l-0.5,0.7l0.8-0.2l0.8,0.1l0.7-0.2l0.8,0.4l2.2,1.4l0.7-0.3l0.8,0.2l0.8-0.3l0.5-0.6
	l0.7,0.6l0.2,0.7l0.3,0.7h-0.8l-0.7,0.5l0.4,0.7l-0.7,0.5l-0.7,0.2l-0.7,0.4l-1.6,0.3l0.3,0.7l1,0.4l-1,0.2l0.7,0.3l-0.7,0.4
	l1.2,0.2v0.1l-1.1,0.8l0.6,0.5l-0.8,0.3l-0.4,0.7l-1,0.3l-1.6,1.8l-1.2,1l-0.8,0.4l-0.5,0.6l-2.5,0.5l-1.2,0.1l-0.4-0.7l-0.6-0.5
	l-0.5-0.7l-0.8,0.4l-0.1,0.8l-1.4,0.7l-0.7,0.5l-2.5,0.5h-0.9L140,179l-0.8-0.1l-0.6-0.6l-0.8-0.2l-0.5-0.7l-3.4-0.5l-0.8,0.1
	l-0.5,0.5l-0.2,0.8l-0.4,0.8l-0.1,0.8v0.8l0.3,0.8l0.1,0.7l0.3,0.8l-0.1,0.8l-0.5,0.8l-0.2,1l-0.7,0.6l0.3,1.8l-0.2,0.8l-0.4,0.8
	l-0.2,0.8l0.8,0.2l0.4,0.8l0.5,3l0.1,2l-0.2,0.8l-0.8,0.3l-0.2,0.8l1,1.8l1.2,1.5l0.6,0.5l0.7,0.8l0.7,0.6l0.2,0.8l-0.2,0.7
	l-0.4,0.8l-0.5,0.8l-0.1,0.8l0.7-0.5l0.9-0.5l1.4,0.8l0.7,0.7l0.7,0.5l0.9,0.4l0.8,0.2l1,1.3l0.6,0.5l0.8,0.2l0.6,0.7l0.5,0.7
	l0.8,0.2l1.7-0.4l0.8,0.3l0.8,0.7l0.6,1l0.3,0.7l0.8,0.4l0.3,0.8l0.1,0.7l0.5,0.7l0.8-0.1L152.5,217.4z"/>
<path class="st1" d="M171,171h170.1 M171,171l164.3,44 M171,171l147.3,85 M171,171l120.3,120.3 M171,171l85,147.3 M171,171l44,164.3
	 M171,171v170 M171,171l-44,164.3 M171,171L85.9,318.3 M171,171L50.7,291.2 M171,171L23.7,256 M171,171L6.7,215 M171,171H0.9
	 M171,171L6.7,127 M171,171L23.7,85.9 M171,171L50.7,50.7 M171,171L85.9,23.7 M171,171L127,6.8 M171,171V0.9 M171,171L215,6.8
	 M171,171l85-147.3 M171,171L291.3,50.7 M171,171l147.3-85.1 M171,171l164.3-44 M202.5,171c-0.1,25.2-28.2,40.1-49.1,26.2
	c-20.5-13.9-17.7-45.1,5-55.1C179.1,133.1,202.6,148.4,202.5,171z M233.5,171c0.2,25.3-16.2,49.2-39.8,58.2
	c-40,15.6-83.6-13.2-85.1-56c-1.5-40.5,36.1-71.9,75.7-63.2C212.6,115.9,233.7,142,233.5,171z M263.3,171c0.2,33.9-19.8,66.8-50,82
	c-59.7,30.6-131-10.6-134.5-77.6C76,114.8,131.3,68,190.6,80.7C232.6,89.7,263.6,128.1,263.3,171z M291.4,171
	c0.4,44.4-26,87.5-65.7,107.3c-77.7,39.4-170-13.7-175-100.7C46.3,96.2,122.5,33.9,201.4,54.4C253.9,67.7,291.9,116.8,291.4,171z
	 M317.5,171c0.3,65.3-44.6,124.2-107.6,141.2c-93.5,25.6-185.6-44.9-185.5-141.8C25.1,69.6,124.8-0.7,220,32.9
	C277.9,53,317.9,109.8,317.5,171z M341.1,171c0.3,77.3-53.3,146.1-128.3,164.9C104.1,363.2-0.7,280.1,0.9,168.1
	C3.6,44.2,132-35.3,244.1,17.4C302.7,44.9,341.5,106.3,341.1,171z"/>
</svg>
